<?xml version="1.0" encoding="UTF-8" standalone="no"?>
<!-- Created with Inkscape (http://www.inkscape.org/) -->

<svg
   version="1.1"
   id="svg2"
   xml:space="preserve"
   width="2560"
   height="1440"
   viewBox="0 0 2560 1440"
   sodipodi:docname="layout1.svg"
   inkscape:version="1.1.1 (3bf5ae0d25, 2021-09-20)"
   xmlns:inkscape="http://www.inkscape.org/namespaces/inkscape"
   xmlns:sodipodi="http://sodipodi.sourceforge.net/DTD/sodipodi-0.dtd"
   xmlns="http://www.w3.org/2000/svg"
   xmlns:svg="http://www.w3.org/2000/svg"><defs
     id="defs6" /><sodipodi:namedview
     id="namedview4"
     pagecolor="#ffffff"
     bordercolor="#666666"
     borderopacity="1.0"
     inkscape:pageshadow="2"
     inkscape:pageopacity="0.0"
     inkscape:pagecheckerboard="0"
     showgrid="false"
     inkscape:zoom="0.55694444"
     inkscape:cx="966.88279"
     inkscape:cy="277.40648"
     inkscape:window-width="1920"
     inkscape:window-height="991"
     inkscape:window-x="-9"
     inkscape:window-y="-9"
     inkscape:window-maximized="1"
     inkscape:current-layer="g8" /><g
     id="g8"
     inkscape:groupmode="layer"
     inkscape:label="layout1"
     transform="matrix(1.3333333,0,0,-1.3333333,0,1440)"><g
       id="g10"><path
         d="M 0,1080 H 1920 V 0 H 0 Z"
         style="fill:#ffffff;fill-opacity:1;fill-rule:nonzero;stroke:none"
         id="path12" /></g><g
       id="g14"><path
         d="M 0,1080 H 1920 V 0 H 0 Z"
         style="fill:#ffffff;fill-opacity:1;fill-rule:nonzero;stroke:none"
         id="path16" /></g><g
       id="g18"
       transform="translate(8,13)"><path
         d="m 0,1040 c 0,11.0457 8.954307,20 20.000002,20 H 280 c 11.04569,0 20,-8.9543 20,-20 V 20 C 300,8.954346 291.04569,0 280,0 H 19.999998 C 8.954304,0 0,8.954346 0,20 Z"
         style="fill:#000000;fill-opacity:1;fill-rule:nonzero;stroke:none"
         id="path20" /></g><g
       id="g22"
       transform="translate(318,948)"><path
         d="m 0,105 c 0,11.04569 8.954305,20 20,20 h 1550 c 11.0457,0 20,-8.95431 20,-20 V 20 C 1590,8.954308 1581.0457,0 1570,0 H 19.999985 C 8.954289,0 0,8.954308 0,20 Z"
         style="fill:#000000;fill-opacity:1;fill-rule:nonzero;stroke:none"
         id="path24" /></g><g
       id="g26"><g
         id="g28"
         transform="translate(8,698)"><path
           d="M 0,75 H 300 V 0 H 0 Z"
           style="fill:#1ed760;fill-opacity:0.5;fill-rule:nonzero;stroke:none"
           id="path30" /></g></g><g
       id="g32"
       transform="translate(8,70.878906)"><path
         d="m 40.40625,-25.878906 z m 8.0625,7.980468 h -4.324219 l -0.02344,1.816407 h 3.925781 c 0.648437,0 1.214844,0.109375 1.699219,0.328125 0.484375,0.21875 0.859375,0.53125 1.125,0.9375 0.273437,0.414062 0.410156,0.90625 0.410156,1.476562 0,0.625 -0.121094,1.132813 -0.363281,1.523438 -0.234375,0.398437 -0.597657,0.6875 -1.089844,0.867187 -0.484375,0.1875 -1.101563,0.28125 -1.851563,0.28125 h -3.328124 v -15.210937 h -2.261719 v 17.0625 h 5.589843 c 0.875,0 1.65625,-0.089844 2.34375,-0.269532 0.6875,-0.171874 1.269532,-0.445312 1.746094,-0.820312 0.484375,-0.367188 0.851563,-0.835938 1.101563,-1.40625 0.25,-0.570312 0.375,-1.253906 0.375,-2.050781 0,-0.703125 -0.179688,-1.339844 -0.539063,-1.910157 -0.359375,-0.5625 -0.859375,-1.023437 -1.5,-1.382812 -0.632812,-0.359375 -1.375,-0.589844 -2.226562,-0.691406 l -0.808594,-0.550782 z m -0.105469,-7.980468 h -5.109375 l 1.277344,1.839844 h 3.832031 c 0.71875,0 1.328125,0.125 1.828125,0.375 0.507813,0.25 0.894532,0.601562 1.160156,1.054687 0.265626,0.460937 0.398438,1.003906 0.398438,1.628906 0,0.632813 -0.113281,1.179688 -0.339844,1.640625 -0.226562,0.460938 -0.582031,0.816406 -1.066406,1.066406 -0.484375,0.25 -1.109375,0.375 -1.875,0.375 h -3.222656 l 0.02344,1.816407 h 4.40625 l 0.480469,-0.65625 c 0.820312,-0.07031 1.515625,-0.304688 2.085938,-0.703125 0.570312,-0.390625 1.003906,-0.890625 1.300781,-1.5 C 53.847656,-19.550781 54,-20.222656 54,-20.957031 c 0,-1.0625 -0.234375,-1.960938 -0.703125,-2.695313 -0.460937,-0.726562 -1.113281,-1.28125 -1.957031,-1.664062 -0.84375,-0.375 -1.835938,-0.5625 -2.976563,-0.5625 z m 6.996094,0 z m 5.214844,1.3125 3.527343,11.367187 h 2.320313 l -5.085937,-14.636719 c -0.117188,-0.3125 -0.273438,-0.648437 -0.46875,-1.007812 -0.1875,-0.367188 -0.429688,-0.714844 -0.726563,-1.042969 -0.296875,-0.328125 -0.65625,-0.59375 -1.078125,-0.796875 C 58.648438,-30.894531 58.152344,-31 57.574219,-31 c -0.171875,0 -0.390625,0.02344 -0.65625,0.07031 -0.265625,0.04688 -0.453125,0.08594 -0.5625,0.117188 l -0.01172,1.757812 c 0.0625,-0.0078 0.160156,-0.01562 0.292969,-0.02344 0.140625,-0.01563 0.238281,-0.02344 0.292969,-0.02344 0.492187,0 0.910156,0.06641 1.253906,0.199218 0.34375,0.125 0.632812,0.339844 0.867187,0.644532 0.242188,0.296874 0.449219,0.707031 0.621094,1.230468 l 0.902344,2.460938 z m -2.589844,11.367187 3.292969,-9.84375 0.5625,-2.285156 -1.558594,-0.796875 -4.664062,12.925781 z m 14.226563,-12.679687 z m 8.285156,17.0625 v -17.0625 h -2.226563 v 17.0625 z m 5.484375,0 v -1.851563 H 72.796875 v 1.851563 z m 0.550781,-17.0625 z m 3.820312,18 v -18 h -2.167968 v 18 z m -0.515624,-11.179688 -0.902344,0.03516 c 0.0078,0.867188 0.136718,1.667969 0.386718,2.402344 0.25,0.742188 0.601563,1.386719 1.054688,1.933594 0.453125,0.546875 0.992188,0.96875 1.617188,1.265625 0.632812,0.304687 1.332031,0.457031 2.097656,0.457031 0.625,0 1.1875,-0.08594 1.6875,-0.257812 0.5,-0.164063 0.925781,-0.429688 1.277344,-0.796875 0.359374,-0.367188 0.632812,-0.84375 0.820312,-1.429688 0.1875,-0.578125 0.28125,-1.285156 0.28125,-2.121093 v -8.308594 h -2.179688 v 8.332031 c 0,0.664063 -0.09766,1.195313 -0.292968,1.59375 -0.195313,0.40625 -0.480469,0.699219 -0.855469,0.878906 -0.375,0.1875 -0.835937,0.28125 -1.382813,0.28125 -0.539062,0 -1.03125,-0.113281 -1.476562,-0.339843 -0.4375,-0.226563 -0.816406,-0.539063 -1.136719,-0.9375 -0.3125,-0.398438 -0.558593,-0.855469 -0.738281,-1.371094 -0.171875,-0.507813 -0.257812,-1.046875 -0.257812,-1.617188 z M 99.75,-25.878906 Z m 4.00781,12.679687 v -12.679687 h -2.17968 v 12.679687 z m -2.34375,3.363281 c 0,0.351563 0.10547,0.648438 0.31641,0.890626 0.21875,0.242187 0.53906,0.363281 0.96094,0.363281 0.41406,0 0.73047,-0.121094 0.94922,-0.363281 0.22656,-0.242188 0.33984,-0.539063 0.33984,-0.890626 0,-0.335937 -0.11328,-0.625 -0.33984,-0.867187 -0.21875,-0.234375 -0.53516,-0.351563 -0.94922,-0.351563 -0.42188,0 -0.74219,0.117188 -0.96094,0.351563 -0.21094,0.242187 -0.31641,0.53125 -0.31641,0.867187 z m 4.17188,-16.042968 z m 9.1289,2.167968 v 6.527344 c 0,0.5 -0.10156,0.933594 -0.30468,1.300782 -0.19532,0.375 -0.49219,0.664062 -0.89063,0.867187 -0.39844,0.203125 -0.89062,0.304687 -1.47656,0.304687 -0.54688,0 -1.02734,-0.09375 -1.44141,-0.28125 -0.40625,-0.1875 -0.72656,-0.433593 -0.96093,-0.738281 -0.22657,-0.304687 -0.33985,-0.632812 -0.33985,-0.984375 h -2.16797 c 0,0.453125 0.11719,0.902344 0.35157,1.347656 0.23437,0.445313 0.57031,0.847657 1.00781,1.207032 0.44531,0.367187 0.97656,0.65625 1.59375,0.867187 0.625,0.21875 1.32031,0.328125 2.08593,0.328125 0.92188,0 1.73438,-0.15625 2.4375,-0.46875 0.71094,-0.3125 1.26563,-0.785156 1.66407,-1.417968 0.40625,-0.625 0.60937,-1.410157 0.60937,-2.355469 v -5.90625 c 0,-0.421875 0.0352,-0.871094 0.10547,-1.347657 0.0781,-0.476562 0.19141,-0.886718 0.33985,-1.230468 v -0.1875 h -2.26172 c -0.10938,0.25 -0.19532,0.582031 -0.25782,0.996094 -0.0625,0.421874 -0.0937,0.8125 -0.0937,1.171874 z m 0.375,5.519532 0.0234,-1.523438 h -2.1914 c -0.61719,0 -1.16797,-0.05078 -1.65235,-0.152344 -0.48437,-0.09375 -0.89062,-0.238281 -1.21875,-0.433593 -0.32812,-0.195313 -0.57812,-0.441407 -0.75,-0.738281 -0.17187,-0.289063 -0.25781,-0.628907 -0.25781,-1.019532 0,-0.398437 0.0898,-0.761718 0.26953,-1.089844 0.17969,-0.328124 0.44922,-0.589843 0.80859,-0.785156 0.36719,-0.1875 0.81641,-0.28125 1.34766,-0.28125 0.66406,0 1.25,0.140625 1.75781,0.421875 0.50782,0.28125 0.91016,0.625 1.20703,1.03125 0.30469,0.40625 0.46875,0.800781 0.49219,1.183594 l 0.92578,-1.042969 c -0.0547,-0.328125 -0.20312,-0.691406 -0.44531,-1.089844 -0.24219,-0.398437 -0.56641,-0.78125 -0.97266,-1.148437 -0.39843,-0.359375 -0.875,-0.660156 -1.42968,-0.902344 -0.54688,-0.234375 -1.16407,-0.351562 -1.85157,-0.351562 -0.85937,0 -1.61328,0.167969 -2.26171,0.503906 -0.64063,0.335937 -1.14063,0.785156 -1.5,1.347656 -0.35157,0.570313 -0.52735,1.207031 -0.52735,1.910157 0,0.679687 0.13281,1.277343 0.39844,1.792968 0.26562,0.523438 0.64844,0.957032 1.14844,1.300782 0.5,0.351562 1.10156,0.617187 1.80468,0.796874 0.70313,0.179688 1.48829,0.269532 2.35547,0.269532 h 2.51953 z m 3.55079,-7.6875 z m 9.86718,12.679687 h 1.96875 v -12.410156 c 0,-1.117187 -0.22656,-2.070313 -0.67969,-2.859375 -0.45312,-0.789062 -1.08593,-1.386719 -1.89843,-1.792969 -0.80469,-0.414062 -1.73438,-0.621093 -2.78907,-0.621093 -0.4375,0 -0.95312,0.07031 -1.54687,0.210937 -0.58594,0.132813 -1.16406,0.363281 -1.73437,0.691406 -0.5625,0.320313 -1.03516,0.753907 -1.41797,1.300781 l 1.13672,1.289063 c 0.53125,-0.640625 1.08593,-1.085937 1.66406,-1.335937 0.58594,-0.25 1.16406,-0.375 1.73437,-0.375 0.6875,0 1.28125,0.128906 1.78125,0.386718 0.5,0.257813 0.88672,0.640625 1.16016,1.148438 0.28125,0.5 0.42187,1.117187 0.42187,1.851562 v 9.726563 z m -8.73047,-6.480469 v 0.246094 c 0,0.96875 0.11329,1.847656 0.33985,2.636719 0.23437,0.796875 0.5664,1.480469 0.99609,2.050781 0.4375,0.570313 0.96485,1.007813 1.58203,1.3125 0.61719,0.3125 1.3125,0.46875 2.08594,0.46875 0.79688,0 1.49219,-0.140625 2.08594,-0.421875 0.60156,-0.273437 1.10937,-0.675781 1.52343,-1.207031 0.42188,-0.523438 0.75391,-1.15625 0.9961,-1.898438 0.24219,-0.742187 0.41015,-1.582031 0.5039,-2.519531 v -1.078125 c -0.0859,-0.929687 -0.2539,-1.765625 -0.5039,-2.507812 -0.24219,-0.742188 -0.57422,-1.375 -0.9961,-1.898438 -0.41406,-0.523437 -0.92187,-0.925781 -1.52343,-1.207031 -0.60156,-0.273437 -1.30469,-0.410156 -2.10938,-0.410156 -0.75781,0 -1.44531,0.160156 -2.0625,0.480469 -0.60937,0.320312 -1.13281,0.769531 -1.57031,1.347656 -0.4375,0.578125 -0.77344,1.257812 -1.00781,2.039062 -0.22656,0.789063 -0.33985,1.644532 -0.33985,2.566406 z m 2.16797,0.246094 v -0.246094 c 0,-0.632812 0.0625,-1.226562 0.1875,-1.78125 0.13282,-0.554687 0.33203,-1.042968 0.59766,-1.464843 0.27344,-0.421875 0.62109,-0.753907 1.04297,-0.996094 0.42187,-0.234375 0.92578,-0.351563 1.51172,-0.351563 0.71875,0 1.3125,0.152344 1.78125,0.457032 0.46875,0.304687 0.83984,0.707031 1.11328,1.207031 0.28125,0.5 0.5,1.042969 0.65625,1.628906 v 2.824219 c -0.0859,0.429688 -0.21875,0.84375 -0.39844,1.242188 -0.17188,0.40625 -0.39844,0.765624 -0.67969,1.078124 -0.27343,0.320313 -0.61328,0.574219 -1.01953,0.761719 -0.40625,0.1875 -0.88281,0.28125 -1.42969,0.28125 -0.59375,0 -1.10546,-0.125 -1.53515,-0.375 -0.42188,-0.242187 -0.76953,-0.578125 -1.04297,-1.007812 -0.26563,-0.421875 -0.46484,-0.914063 -0.59766,-1.476563 -0.125,-0.554687 -0.1875,-1.148437 -0.1875,-1.78125 z m 10.17188,-6.445312 z m 1.07812,6.199218 v 0.269532 c 0,0.914062 0.13282,1.761718 0.39844,2.542968 0.26562,0.789063 0.64844,1.472657 1.14844,2.050782 0.5,0.585937 1.10547,1.039062 1.8164,1.359375 0.71094,0.328125 1.50782,0.492187 2.39063,0.492187 0.89062,0 1.6914,-0.164062 2.40234,-0.492187 0.71875,-0.320313 1.32813,-0.773438 1.82813,-1.359375 0.50781,-0.578125 0.89453,-1.261719 1.16015,-2.050782 0.26563,-0.78125 0.39844,-1.628906 0.39844,-2.542968 v -0.269532 c 0,-0.914062 -0.13281,-1.761718 -0.39844,-2.542968 -0.26562,-0.78125 -0.65234,-1.464844 -1.16015,-2.050782 -0.5,-0.578124 -1.10547,-1.03125 -1.81641,-1.359374 -0.70312,-0.320313 -1.5,-0.480469 -2.39062,-0.480469 -0.89063,0 -1.69141,0.160156 -2.40235,0.480469 -0.71094,0.328124 -1.32031,0.78125 -1.82812,1.359374 -0.5,0.585938 -0.88282,1.269532 -1.14844,2.050782 -0.26562,0.78125 -0.39844,1.628906 -0.39844,2.542968 z m 2.16797,0.269532 v -0.269532 c 0,-0.632812 0.0742,-1.230468 0.22266,-1.792968 0.14843,-0.554688 0.37109,-1.046875 0.66797,-1.476563 0.30468,-0.429687 0.68359,-0.769531 1.13671,-1.019531 0.45313,-0.242188 0.98047,-0.363281 1.58204,-0.363281 0.59375,0 1.11328,0.121093 1.55859,0.363281 0.45312,0.25 0.82812,0.589844 1.125,1.019531 0.29687,0.429688 0.51953,0.921875 0.66797,1.476563 0.15625,0.5625 0.23437,1.160156 0.23437,1.792968 v 0.269532 c 0,0.625 -0.0781,1.214844 -0.23437,1.769531 -0.14844,0.5625 -0.375,1.058594 -0.67969,1.488281 -0.29687,0.4375 -0.67187,0.78125 -1.125,1.03125 -0.44531,0.25 -0.96875,0.375 -1.57031,0.375 -0.59375,0 -1.11719,-0.125 -1.57031,-0.375 -0.44532,-0.25 -0.82032,-0.59375 -1.125,-1.03125 -0.29688,-0.429687 -0.51954,-0.925781 -0.66797,-1.488281 -0.14844,-0.554687 -0.22266,-1.144531 -0.22266,-1.769531 z m 16.39453,-6.46875 z m 1.98047,17.0625 h 5.64844 c 1.28125,0 2.36328,-0.195313 3.24609,-0.585938 0.89063,-0.390625 1.56641,-0.96875 2.02735,-1.734375 0.46875,-0.757812 0.70312,-1.691406 0.70312,-2.800781 0,-0.78125 -0.16016,-1.496094 -0.48047,-2.144531 -0.3125,-0.640625 -0.76562,-1.1875 -1.35937,-1.640625 -0.58594,-0.445313 -1.28907,-0.777344 -2.10938,-0.996094 l -0.63281,-0.246094 h -5.30859 l -0.0234,1.839844 h 4.00781 c 0.8125,0 1.48828,0.140625 2.02734,0.421875 0.53907,0.289063 0.94532,0.675781 1.21875,1.160156 0.27344,0.484375 0.41016,1.019531 0.41016,1.605469 0,0.65625 -0.12891,1.230469 -0.38672,1.722656 -0.25781,0.492188 -0.66406,0.871094 -1.21875,1.136719 -0.54687,0.273437 -1.2539,0.410156 -2.12109,0.410156 h -3.38672 v -15.210937 h -2.26172 v 17.0625 z m 9.97266,-17.0625 -4.14844,7.734375 2.35547,0.01172 4.20703,-7.605469 v -0.140625 h -2.41406 z m 2.83593,0 z m 1.07813,6.199218 v 0.269532 c 0,0.914062 0.13281,1.761718 0.39844,2.542968 0.26562,0.789063 0.64843,1.472657 1.14843,2.050782 0.5,0.585937 1.10547,1.039062 1.81641,1.359375 0.71094,0.328125 1.50781,0.492187 2.39063,0.492187 0.89062,0 1.6914,-0.164062 2.40234,-0.492187 0.71875,-0.320313 1.32812,-0.773438 1.82812,-1.359375 0.50782,-0.578125 0.89454,-1.261719 1.16016,-2.050782 0.26563,-0.78125 0.39844,-1.628906 0.39844,-2.542968 v -0.269532 c 0,-0.914062 -0.13281,-1.761718 -0.39844,-2.542968 -0.26562,-0.78125 -0.65234,-1.464844 -1.16016,-2.050782 -0.5,-0.578124 -1.10546,-1.03125 -1.8164,-1.359374 -0.70313,-0.320313 -1.5,-0.480469 -2.39063,-0.480469 -0.89062,0 -1.6914,0.160156 -2.40234,0.480469 -0.71094,0.328124 -1.32031,0.78125 -1.82813,1.359374 -0.5,0.585938 -0.88281,1.269532 -1.14843,2.050782 -0.26563,0.78125 -0.39844,1.628906 -0.39844,2.542968 z m 2.16797,0.269532 v -0.269532 c 0,-0.632812 0.0742,-1.230468 0.22265,-1.792968 0.14844,-0.554688 0.3711,-1.046875 0.66797,-1.476563 0.30469,-0.429687 0.6836,-0.769531 1.13672,-1.019531 0.45313,-0.242188 0.98047,-0.363281 1.58203,-0.363281 0.59375,0 1.11328,0.121093 1.5586,0.363281 0.45312,0.25 0.82812,0.589844 1.125,1.019531 0.29687,0.429688 0.51953,0.921875 0.66797,1.476563 0.15625,0.5625 0.23437,1.160156 0.23437,1.792968 v 0.269532 c 0,0.625 -0.0781,1.214844 -0.23437,1.769531 -0.14844,0.5625 -0.375,1.058594 -0.67969,1.488281 -0.29688,0.4375 -0.67188,0.78125 -1.125,1.03125 -0.44531,0.25 -0.96875,0.375 -1.57031,0.375 -0.59375,0 -1.11719,-0.125 -1.57032,-0.375 -0.44531,-0.25 -0.82031,-0.59375 -1.125,-1.03125 -0.29687,-0.429687 -0.51953,-0.925781 -0.66797,-1.488281 -0.14843,-0.554687 -0.22265,-1.144531 -0.22265,-1.769531 z m 10.4414,-6.46875 z m 9.64454,2.460937 v 15.539063 h 2.17968 v -18 h -1.99218 z m -8.53125,3.738281 v 0.246094 c 0,0.96875 0.11718,1.847656 0.35156,2.636719 0.24219,0.796875 0.58203,1.480469 1.01953,2.050781 0.44531,0.570313 0.97266,1.007813 1.58203,1.3125 0.61719,0.3125 1.30469,0.46875 2.0625,0.46875 0.79688,0 1.49219,-0.140625 2.08594,-0.421875 0.60156,-0.273437 1.10937,-0.675781 1.52344,-1.207031 0.42187,-0.523438 0.7539,-1.15625 0.99609,-1.898438 0.24219,-0.742187 0.41016,-1.582031 0.50391,-2.519531 v -1.078125 c -0.0859,-0.929687 -0.25391,-1.765625 -0.50391,-2.507812 -0.24219,-0.742188 -0.57422,-1.375 -0.99609,-1.898438 -0.41407,-0.523437 -0.92188,-0.925781 -1.52344,-1.207031 -0.60156,-0.273437 -1.30469,-0.410156 -2.10938,-0.410156 -0.74218,0 -1.42187,0.160156 -2.03906,0.480469 -0.60937,0.320312 -1.13672,0.769531 -1.58203,1.347656 -0.4375,0.578125 -0.77734,1.257812 -1.01953,2.039062 -0.23438,0.789063 -0.35156,1.644532 -0.35156,2.566406 z m 2.17968,0.246094 v -0.246094 c 0,-0.632812 0.0625,-1.226562 0.1875,-1.78125 0.13282,-0.554687 0.33594,-1.042968 0.60938,-1.464843 0.27344,-0.421875 0.62109,-0.753907 1.04297,-0.996094 0.42187,-0.234375 0.92578,-0.351563 1.51172,-0.351563 0.71875,0 1.30859,0.152344 1.76953,0.457032 0.46875,0.304687 0.84375,0.707031 1.125,1.207031 0.28125,0.5 0.5,1.042969 0.65625,1.628906 v 2.824219 c -0.0937,0.429688 -0.23047,0.84375 -0.41016,1.242188 -0.17187,0.40625 -0.39844,0.765624 -0.67969,1.078124 -0.27343,0.320313 -0.61328,0.574219 -1.01953,0.761719 -0.39844,0.1875 -0.87109,0.28125 -1.41797,0.28125 -0.59375,0 -1.10547,-0.125 -1.53515,-0.375 -0.42188,-0.242187 -0.76953,-0.578125 -1.04297,-1.007812 -0.27344,-0.421875 -0.47656,-0.914063 -0.60938,-1.476563 -0.125,-0.554687 -0.1875,-1.148437 -0.1875,-1.78125 z m 10.25391,-6.445312 z m 3.82031,10.6875 v -10.6875 h -2.16797 v 12.679687 h 2.10938 l 0.0586,-1.992187 z m 3.96094,2.0625 -0.0117,-2.015625 c -0.17969,0.03906 -0.35156,0.0625 -0.51562,0.07031 -0.15625,0.01563 -0.33594,0.02344 -0.53907,0.02344 -0.5,0 -0.9414,-0.07813 -1.32422,-0.234375 -0.38281,-0.15625 -0.70703,-0.375 -0.97265,-0.65625 -0.26563,-0.28125 -0.47656,-0.617188 -0.63281,-1.007813 -0.14844,-0.382812 -0.2461,-0.804687 -0.29297,-1.265625 l -0.60938,-0.351562 c 0,0.765625 0.0742,1.484375 0.22266,2.15625 0.15625,0.671875 0.39453,1.265625 0.71484,1.78125 0.32031,0.523437 0.72657,0.929687 1.21875,1.21875 0.5,0.296875 1.09375,0.445312 1.78125,0.445312 0.15625,0 0.33594,-0.01953 0.53906,-0.05859 0.20313,-0.03125 0.34375,-0.06641 0.42188,-0.105468 z m 0.35156,-12.75 z m 4.00781,12.679687 v -12.679687 h -2.17968 v 12.679687 z m -2.34375,3.363281 c 0,0.351563 0.10547,0.648438 0.31641,0.890626 0.21875,0.242187 0.53906,0.363281 0.96094,0.363281 0.41406,0 0.73047,-0.121094 0.94922,-0.363281 0.22656,-0.242188 0.33984,-0.539063 0.33984,-0.890626 0,-0.335937 -0.11328,-0.625 -0.33984,-0.867187 -0.21875,-0.234375 -0.53516,-0.351563 -0.94922,-0.351563 -0.42188,0 -0.74219,0.117188 -0.96094,0.351563 -0.21094,0.242187 -0.31641,0.53125 -0.31641,0.867187 z M 207.75,-25.878906 Z m 9.86719,12.679687 h 1.96875 v -12.410156 c 0,-1.117187 -0.22657,-2.070313 -0.67969,-2.859375 -0.45313,-0.789062 -1.08594,-1.386719 -1.89844,-1.792969 -0.80469,-0.414062 -1.73437,-0.621093 -2.78906,-0.621093 -0.4375,0 -0.95313,0.07031 -1.54688,0.210937 -0.58593,0.132813 -1.16406,0.363281 -1.73437,0.691406 -0.5625,0.320313 -1.03516,0.753907 -1.41797,1.300781 l 1.13672,1.289063 c 0.53125,-0.640625 1.08594,-1.085937 1.66406,-1.335937 0.58594,-0.25 1.16406,-0.375 1.73438,-0.375 0.6875,0 1.28125,0.128906 1.78125,0.386718 0.5,0.257813 0.88672,0.640625 1.16015,1.148438 0.28125,0.5 0.42188,1.117187 0.42188,1.851562 v 9.726563 z m -8.73047,-6.480469 v 0.246094 c 0,0.96875 0.11328,1.847656 0.33984,2.636719 0.23438,0.796875 0.56641,1.480469 0.9961,2.050781 0.4375,0.570313 0.96484,1.007813 1.58203,1.3125 0.61718,0.3125 1.3125,0.46875 2.08593,0.46875 0.79688,0 1.49219,-0.140625 2.08594,-0.421875 0.60156,-0.273437 1.10938,-0.675781 1.52344,-1.207031 0.42187,-0.523438 0.75391,-1.15625 0.99609,-1.898438 0.24219,-0.742187 0.41016,-1.582031 0.50391,-2.519531 v -1.078125 c -0.0859,-0.929687 -0.25391,-1.765625 -0.50391,-2.507812 -0.24218,-0.742188 -0.57422,-1.375 -0.99609,-1.898438 -0.41406,-0.523437 -0.92188,-0.925781 -1.52344,-1.207031 -0.60156,-0.273437 -1.30469,-0.410156 -2.10937,-0.410156 -0.75782,0 -1.44532,0.160156 -2.0625,0.480469 -0.60938,0.320312 -1.13282,0.769531 -1.57032,1.347656 -0.4375,0.578125 -0.77343,1.257812 -1.00781,2.039062 -0.22656,0.789063 -0.33984,1.644532 -0.33984,2.566406 z m 2.16797,0.246094 v -0.246094 c 0,-0.632812 0.0625,-1.226562 0.1875,-1.78125 0.13281,-0.554687 0.33203,-1.042968 0.59765,-1.464843 0.27344,-0.421875 0.6211,-0.753907 1.04297,-0.996094 0.42188,-0.234375 0.92578,-0.351563 1.51172,-0.351563 0.71875,0 1.3125,0.152344 1.78125,0.457032 0.46875,0.304687 0.83984,0.707031 1.11328,1.207031 0.28125,0.5 0.5,1.042969 0.65625,1.628906 v 2.824219 c -0.0859,0.429688 -0.21875,0.84375 -0.39844,1.242188 -0.17187,0.40625 -0.39843,0.765624 -0.67968,1.078124 -0.27344,0.320313 -0.61328,0.574219 -1.01953,0.761719 -0.40625,0.1875 -0.88282,0.28125 -1.42969,0.28125 -0.59375,0 -1.10547,-0.125 -1.53516,-0.375 -0.42187,-0.242187 -0.76953,-0.578125 -1.04297,-1.007812 -0.26562,-0.421875 -0.46484,-0.914063 -0.59765,-1.476563 -0.125,-0.554687 -0.1875,-1.148437 -0.1875,-1.78125 z m 10.17187,-6.445312 z m 9.41016,2.929687 v 9.75 h 2.17969 v -12.679687 h -2.07422 z m 0.41015,2.671875 0.90235,0.02344 c 0,-0.84375 -0.0898,-1.625 -0.26953,-2.34375 -0.17188,-0.710938 -0.45313,-1.328125 -0.84375,-1.851563 -0.39063,-0.523437 -0.90235,-0.933593 -1.53516,-1.230469 -0.63281,-0.289062 -1.40234,-0.433593 -2.30859,-0.433593 -0.61719,0 -1.1836,0.08984 -1.69922,0.269531 -0.50781,0.179688 -0.94531,0.457031 -1.3125,0.832031 -0.36719,0.375 -0.65234,0.863281 -0.85547,1.464844 -0.19531,0.601563 -0.29297,1.324219 -0.29297,2.167969 v 8.179687 H 225 v -8.203125 c 0,-0.570312 0.0625,-1.042968 0.1875,-1.417968 0.13281,-0.367188 0.30859,-0.660157 0.52734,-0.878907 0.22657,-0.210937 0.47657,-0.359375 0.75,-0.445312 0.28125,-0.08594 0.57032,-0.128907 0.86719,-0.128907 0.92188,0 1.65234,0.175782 2.19141,0.527344 0.53906,0.359375 0.92578,0.839844 1.16015,1.441406 0.24219,0.609376 0.36328,1.285157 0.36328,2.027344 z m 3.42188,-5.601562 z m 6.91406,-0.234375 c -0.88281,0 -1.68359,0.148437 -2.40234,0.445312 -0.71094,0.304688 -1.32422,0.730469 -1.83985,1.277344 -0.50781,0.546875 -0.89843,1.195313 -1.17187,1.945313 -0.27344,0.75 -0.41016,1.570312 -0.41016,2.460937 v 0.492187 c 0,1.03125 0.15235,1.949219 0.45703,2.753907 0.30469,0.8125 0.71875,1.5 1.24219,2.0625 0.52344,0.5625 1.11719,0.988281 1.78125,1.277343 0.66406,0.289063 1.35156,0.433594 2.0625,0.433594 0.90625,0 1.6875,-0.15625 2.34375,-0.46875 0.66406,-0.3125 1.20703,-0.75 1.62891,-1.3125 0.42187,-0.554687 0.73437,-1.210937 0.9375,-1.96875 0.20312,-0.75 0.30469,-1.570312 0.30469,-2.460937 v -0.972657 h -9.46875 v 1.769532 h 7.30078 v 0.164062 c -0.0312,0.5625 -0.14844,1.109375 -0.35157,1.640625 -0.19531,0.53125 -0.50781,0.96875 -0.9375,1.3125 -0.42968,0.34375 -1.01562,0.515625 -1.75781,0.515625 -0.49219,0 -0.94531,-0.105468 -1.35937,-0.316406 -0.41406,-0.203125 -0.76953,-0.507812 -1.06641,-0.914062 -0.29687,-0.40625 -0.52734,-0.902344 -0.69141,-1.488282 -0.16406,-0.585937 -0.24609,-1.261718 -0.24609,-2.027344 v -0.492187 c 0,-0.601563 0.082,-1.167969 0.24609,-1.699219 0.17188,-0.523437 0.41797,-0.984375 0.73829,-1.382812 0.32812,-0.398438 0.72265,-0.710938 1.18359,-0.9375 0.46875,-0.226563 1,-0.339844 1.59375,-0.339844 0.76562,0 1.41406,0.15625 1.94531,0.46875 0.53125,0.3125 0.9961,0.730469 1.39453,1.253906 l 1.3125,-1.042968 c -0.27343,-0.414063 -0.62109,-0.808594 -1.04297,-1.183594 -0.42187,-0.375 -0.9414,-0.679688 -1.55859,-0.914063 -0.60937,-0.234375 -1.33203,-0.351562 -2.16797,-0.351562 z m 5.8125,0.234375 z m 9.03516,3.363281 c 0,0.3125 -0.0703,0.601563 -0.21094,0.867187 -0.13281,0.273438 -0.41016,0.519532 -0.83203,0.738282 -0.41406,0.226562 -1.03906,0.421875 -1.875,0.585937 -0.70313,0.148438 -1.33984,0.324219 -1.91016,0.527344 -0.5625,0.203125 -1.04297,0.449219 -1.4414,0.738281 -0.39063,0.289063 -0.69141,0.628906 -0.90235,1.019532 -0.21093,0.390624 -0.3164,0.847656 -0.3164,1.371093 0,0.5 0.10937,0.972657 0.32812,1.417969 0.22656,0.445312 0.54297,0.839844 0.94922,1.183594 0.41406,0.34375 0.91016,0.613281 1.48828,0.808594 0.57813,0.195312 1.22266,0.292968 1.9336,0.292968 1.01562,0 1.88281,-0.179687 2.60156,-0.539062 0.71875,-0.359375 1.26953,-0.839844 1.65234,-1.441406 0.38281,-0.59375 0.57422,-1.253907 0.57422,-1.980469 h -2.16797 c 0,0.351562 -0.10547,0.691406 -0.3164,1.019531 -0.20313,0.335938 -0.50391,0.613281 -0.90235,0.832031 -0.39062,0.21875 -0.87109,0.328125 -1.4414,0.328125 -0.60157,0 -1.08985,-0.09375 -1.46485,-0.28125 -0.36719,-0.179687 -0.63672,-0.410156 -0.80859,-0.691406 -0.16406,-0.28125 -0.2461,-0.578125 -0.2461,-0.890625 0,-0.234375 0.0391,-0.445313 0.11719,-0.632813 0.0859,-0.179687 0.23438,-0.347656 0.44531,-0.503906 0.21094,-0.148437 0.50782,-0.289062 0.89063,-0.421875 0.38281,-0.132812 0.87109,-0.265625 1.46484,-0.398437 1.03907,-0.234375 1.89453,-0.515625 2.56641,-0.84375 0.67187,-0.328125 1.17187,-0.730469 1.5,-1.207032 0.32812,-0.476562 0.49219,-1.054687 0.49219,-1.734374 0,-0.554688 -0.11719,-1.0625 -0.35157,-1.523438 -0.22656,-0.460938 -0.55859,-0.859375 -0.99609,-1.195312 -0.42969,-0.328126 -0.94531,-0.585938 -1.54687,-0.773438 -0.59375,-0.179688 -1.26172,-0.269531 -2.00391,-0.269531 -1.11719,0 -2.0625,0.199219 -2.83594,0.597656 -0.77344,0.398437 -1.35937,0.914063 -1.75781,1.546875 -0.39844,0.632812 -0.59766,1.300781 -0.59766,2.003906 h 2.17969 c 0.0312,-0.59375 0.20313,-1.066406 0.51563,-1.417968 0.3125,-0.34375 0.69531,-0.589844 1.14843,-0.738282 0.45313,-0.140625 0.90235,-0.210937 1.34766,-0.210937 0.59375,0 1.08984,0.07813 1.48828,0.234375 0.40625,0.15625 0.71484,0.371094 0.92578,0.644531 0.21094,0.273437 0.31641,0.585937 0.31641,0.9375 z"
         style="fill:#ffffff;fill-opacity:1;fill-rule:nonzero;stroke:none"
         id="path34" /></g><g
       id="g42"
       transform="translate(8,550.20703)"><path
         d="m 74.414062,-25.207031 z m 18.237305,10.620117 v -7.807617 c -0.263672,-0.390625 -0.683594,-0.830078 -1.259765,-1.31836 -0.576172,-0.478515 -1.372071,-0.898437 -2.387696,-1.259765 C 87.998047,-25.324219 86.699219,-25.5 85.107422,-25.5 c -1.298828,0 -2.495117,0.224609 -3.588867,0.673828 -1.083985,0.458984 -2.026367,1.123047 -2.827149,1.992188 -0.791015,0.878906 -1.40625,1.943359 -1.845703,3.193359 -0.429687,1.259766 -0.644531,2.685547 -0.644531,4.277344 v 1.655273 c 0,1.591797 0.185547,3.012696 0.55664,4.262696 0.38086,1.25 0.9375,2.30957 1.669922,3.17871 0.732422,0.878907 1.63086,1.542969 2.695313,1.992188 1.064453,0.458984 2.285156,0.688476 3.662109,0.688476 1.63086,0 2.993164,-0.283203 4.086914,-0.849609 1.103516,-0.556641 1.962891,-1.328125 2.578125,-2.314453 0.625,-0.986328 1.025391,-2.109375 1.201172,-3.369141 h -2.827148 c -0.126953,0.771485 -0.38086,1.47461 -0.761719,2.109375 -0.371094,0.634766 -0.90332,1.142578 -1.59668,1.523438 -0.693359,0.390625 -1.586914,0.585937 -2.680664,0.585937 -0.986328,0 -1.84082,-0.180664 -2.563476,-0.541992 -0.722657,-0.361328 -1.31836,-0.878906 -1.78711,-1.552734 -0.46875,-0.673828 -0.820312,-1.489258 -1.054687,-2.446289 -0.22461,-0.957032 -0.336914,-2.036133 -0.336914,-3.237305 v -1.68457 c 0,-1.230469 0.141601,-2.329102 0.424804,-3.295899 0.292969,-0.966797 0.708008,-1.791992 1.245118,-2.475586 0.537109,-0.673828 1.176757,-1.186523 1.918945,-1.538086 0.751953,-0.351562 1.582031,-0.527343 2.490234,-0.527343 1.00586,0 1.821289,0.08301 2.446289,0.249023 0.625,0.175781 1.113282,0.38086 1.464844,0.615234 0.351563,0.244141 0.620117,0.473633 0.805664,0.688477 v 4.775391 h -4.936523 v 2.285156 z m 2.211914,-10.620117 z M 103.50586,-25.5 c -1.10352,0 -2.10449,0.185547 -3.00293,0.556641 -0.888672,0.380859 -1.655274,0.913086 -2.299805,1.596679 -0.634766,0.683594 -1.123047,1.494141 -1.464844,2.431641 -0.341797,0.9375 -0.512695,1.962891 -0.512695,3.076172 v 0.615234 c 0,1.289063 0.19043,2.436524 0.571289,3.442383 0.380859,1.015625 0.898437,1.875 1.552734,2.578125 0.654297,0.703125 1.396485,1.235352 2.226561,1.59668 0.83008,0.361328 1.68946,0.541992 2.57813,0.541992 1.13281,0 2.10937,-0.195313 2.92968,-0.585938 0.83008,-0.390625 1.50879,-0.9375 2.03614,-1.640625 0.52734,-0.693359 0.91797,-1.513672 1.17187,-2.460937 0.25391,-0.9375 0.38086,-1.962891 0.38086,-3.076172 v -1.21582 H 97.836914 v 2.211914 h 9.125976 v 0.205078 c -0.0391,0.703125 -0.18555,1.386719 -0.43945,2.050781 -0.24414,0.664063 -0.63477,1.210938 -1.17188,1.640625 -0.53711,0.429688 -1.26953,0.644531 -2.19726,0.644531 -0.61524,0 -1.18164,-0.131836 -1.69922,-0.395507 -0.51758,-0.253907 -0.96192,-0.634766 -1.33301,-1.142579 -0.371093,-0.507812 -0.659179,-1.127929 -0.864258,-1.860351 -0.205078,-0.732422 -0.307617,-1.577149 -0.307617,-2.53418 v -0.615234 c 0,-0.751953 0.102539,-1.459961 0.307617,-2.124024 0.214844,-0.654297 0.522461,-1.230468 0.922848,-1.728515 0.41016,-0.498047 0.90332,-0.888672 1.4795,-1.171875 0.58593,-0.283203 1.25,-0.424805 1.99218,-0.424805 0.95703,0 1.76758,0.195313 2.43164,0.585938 0.66407,0.390625 1.24512,0.913086 1.74317,1.567382 l 1.64062,-1.303711 c -0.34179,-0.517578 -0.77636,-1.010742 -1.30371,-1.479492 -0.52734,-0.46875 -1.17675,-0.849609 -1.94824,-1.142578 C 105.4541,-25.353516 104.55078,-25.5 103.50586,-25.5 Z m 0.4541,22.792969 3.63281,-3.999024 v -0.146484 h -2.25586 l -2.19726,2.475586 -2.18262,-2.475586 h -2.226561 v 0.161133 l 3.588871,3.984375 z m 6.81152,-22.5 z m 4.7754,12.46582 v -12.46582 h -2.70997 v 15.849609 h 2.56348 z m -0.64454,-3.94043 -1.12793,0.04395 c 0.01,1.083984 0.1709,2.084961 0.4834,3.002929 0.3125,0.927735 0.75196,1.733399 1.31836,2.416993 0.56641,0.683593 1.24024,1.210937 2.02149,1.582031 0.79101,0.380859 1.66504,0.571289 2.62207,0.571289 0.78125,0 1.48437,-0.107422 2.10937,-0.322266 0.625,-0.205078 1.15723,-0.537109 1.59668,-0.996093 0.44922,-0.458985 0.79102,-1.054688 1.02539,-1.78711 0.23438,-0.722656 0.35156,-1.606445 0.35156,-2.651367 v -10.385742 h -2.7246 v 10.415039 c 0,0.830078 -0.12207,1.49414 -0.36622,1.992187 -0.24414,0.507813 -0.60058,0.874024 -1.06933,1.098633 -0.46875,0.234375 -1.04492,0.351563 -1.72852,0.351563 -0.67383,0 -1.28906,-0.141602 -1.8457,-0.424805 -0.54688,-0.283203 -1.02051,-0.673828 -1.4209,-1.171875 -0.39062,-0.498047 -0.69824,-1.069336 -0.92285,-1.713867 -0.21484,-0.634766 -0.32227,-1.308594 -0.32227,-2.021485 z m 12.45118,-8.52539 z M 135.99609,-25.5 c -1.10351,0 -2.10449,0.185547 -3.00293,0.556641 -0.88867,0.380859 -1.65527,0.913086 -2.2998,1.596679 -0.63477,0.683594 -1.12305,1.494141 -1.46484,2.431641 -0.3418,0.9375 -0.5127,1.962891 -0.5127,3.076172 v 0.615234 c 0,1.289063 0.19043,2.436524 0.57129,3.442383 0.38086,1.015625 0.89844,1.875 1.55273,2.578125 0.6543,0.703125 1.39649,1.235352 2.22657,1.59668 0.83007,0.361328 1.68945,0.541992 2.57812,0.541992 1.13281,0 2.10938,-0.195313 2.92969,-0.585938 0.83008,-0.390625 1.50879,-0.9375 2.03613,-1.640625 0.52734,-0.693359 0.91797,-1.513672 1.17188,-2.460937 0.2539,-0.9375 0.38086,-1.962891 0.38086,-3.076172 v -1.21582 h -11.83594 v 2.211914 h 9.12597 v 0.205078 c -0.0391,0.703125 -0.18554,1.386719 -0.43945,2.050781 -0.24414,0.664063 -0.63476,1.210938 -1.17187,1.640625 -0.53711,0.429688 -1.26953,0.644531 -2.19727,0.644531 -0.61523,0 -1.18164,-0.131836 -1.69922,-0.395507 -0.51758,-0.253907 -0.96191,-0.634766 -1.33301,-1.142579 -0.37109,-0.507812 -0.65918,-1.127929 -0.86425,-1.860351 -0.20508,-0.732422 -0.30762,-1.577149 -0.30762,-2.53418 v -0.615234 c 0,-0.751953 0.10254,-1.459961 0.30762,-2.124024 0.21484,-0.654297 0.52246,-1.230468 0.92285,-1.728515 0.41015,-0.498047 0.90332,-0.888672 1.47949,-1.171875 0.58594,-0.283203 1.25,-0.424805 1.99219,-0.424805 0.95703,0 1.76758,0.195313 2.43164,0.585938 0.66406,0.390625 1.24512,0.913086 1.74316,1.567382 l 1.64063,-1.303711 c -0.3418,-0.517578 -0.77637,-1.010742 -1.30371,-1.479492 -0.52735,-0.46875 -1.17676,-0.849609 -1.94825,-1.142578 C 137.94434,-25.353516 137.04102,-25.5 135.99609,-25.5 Z m 7.26563,0.292969 z m 4.77539,13.359375 v -13.359375 h -2.70996 v 15.849609 h 2.63672 l 0.0732,-2.490234 z m 4.95117,2.578125 -0.0146,-2.519531 c -0.22461,0.04883 -0.43945,0.07812 -0.64453,0.08789 -0.19531,0.01953 -0.41992,0.0293 -0.67383,0.0293 -0.625,0 -1.17675,-0.09766 -1.65527,-0.292969 -0.47852,-0.195312 -0.88379,-0.46875 -1.21582,-0.820312 -0.33203,-0.351563 -0.5957,-0.771485 -0.79102,-1.259766 -0.18554,-0.478516 -0.30761,-1.005859 -0.36621,-1.582031 l -0.76172,-0.439453 c 0,0.957031 0.0928,1.855468 0.27832,2.695312 0.19532,0.839844 0.49317,1.582032 0.89356,2.226563 0.40039,0.654297 0.9082,1.162109 1.52344,1.523437 0.625,0.371094 1.36718,0.556641 2.22656,0.556641 0.19531,0 0.41992,-0.024414 0.67383,-0.073242 0.2539,-0.039063 0.42968,-0.083008 0.52734,-0.131836 z m 0.14649,-15.9375 z m 1.34765,7.749023 v 0.336914 c 0,1.142578 0.16602,2.202149 0.49805,3.178711 0.33203,0.986328 0.81055,1.840821 1.43555,2.563477 0.625,0.732422 1.38183,1.298828 2.2705,1.699218 0.88867,0.410157 1.88477,0.615235 2.98828,0.615235 1.11329,0 2.11426,-0.205078 3.00293,-0.615235 0.89844,-0.40039 1.66016,-0.966796 2.28516,-1.699218 0.63477,-0.722656 1.11816,-1.577149 1.4502,-2.563477 0.33203,-0.976562 0.49804,-2.036133 0.49804,-3.178711 v -0.336914 c 0,-1.142578 -0.16601,-2.202148 -0.49804,-3.178711 -0.33204,-0.976562 -0.81543,-1.831054 -1.4502,-2.563476 -0.625,-0.722657 -1.38184,-1.289063 -2.27051,-1.699219 -0.8789,-0.400391 -1.875,-0.600586 -2.98828,-0.600586 -1.11328,0 -2.11426,0.200195 -3.00293,0.600586 -0.88867,0.410156 -1.65039,0.976562 -2.28515,1.699219 -0.625,0.732422 -1.10352,1.586914 -1.43555,2.563476 -0.33203,0.976563 -0.49805,2.036133 -0.49805,3.178711 z m 2.70996,0.336914 v -0.336914 c 0,-0.791015 0.0928,-1.538086 0.27832,-2.241211 0.18555,-0.693359 0.46387,-1.308593 0.83496,-1.845703 0.38086,-0.537109 0.8545,-0.961914 1.4209,-1.274414 0.56641,-0.302734 1.22559,-0.454102 1.97754,-0.454102 0.74219,0 1.3916,0.151368 1.94824,0.454102 0.56641,0.3125 1.03516,0.737305 1.40625,1.274414 0.3711,0.53711 0.64942,1.152344 0.83496,1.845703 0.19532,0.703125 0.29297,1.450196 0.29297,2.241211 v 0.336914 c 0,0.78125 -0.0977,1.518555 -0.29297,2.211914 -0.18554,0.703125 -0.46875,1.323242 -0.84961,1.860352 -0.37109,0.546875 -0.83984,0.976562 -1.40625,1.289062 -0.55664,0.3125 -1.21093,0.46875 -1.96289,0.46875 -0.74218,0 -1.39648,-0.15625 -1.96289,-0.46875 -0.55664,-0.3125 -1.02539,-0.742187 -1.40625,-1.289062 -0.37109,-0.53711 -0.64941,-1.157227 -0.83496,-1.860352 -0.18554,-0.693359 -0.27832,-1.430664 -0.27832,-2.211914 z m 13.05176,-8.085937 z m 11.29395,4.204101 c 0,0.390625 -0.0879,0.751953 -0.26368,1.083985 -0.16601,0.341797 -0.51269,0.649414 -1.04004,0.922851 -0.51757,0.283203 -1.29882,0.527344 -2.34375,0.732422 -0.8789,0.185547 -1.6748,0.405274 -2.38769,0.65918 -0.70313,0.253906 -1.30371,0.561523 -1.80176,0.922851 -0.48828,0.361329 -0.86426,0.786133 -1.12793,1.274414 -0.26367,0.488282 -0.39551,1.059571 -0.39551,1.713868 0,0.625 0.13672,1.21582 0.41016,1.772461 0.2832,0.55664 0.67871,1.049804 1.18652,1.479492 0.51758,0.429687 1.1377,0.766601 1.86036,1.010742 0.72265,0.244141 1.52832,0.366211 2.41699,0.366211 1.26953,0 2.35351,-0.224609 3.25195,-0.673828 0.89844,-0.449219 1.58691,-1.049805 2.06543,-1.801758 0.47852,-0.742188 0.71777,-1.567383 0.71777,-2.475586 h -2.70996 c 0,0.439453 -0.13183,0.864258 -0.3955,1.274414 -0.25391,0.419922 -0.62989,0.766602 -1.12793,1.040039 -0.48829,0.273438 -1.08887,0.410156 -1.80176,0.410156 -0.75196,0 -1.36231,-0.117187 -1.83106,-0.351562 -0.45898,-0.22461 -0.7959,-0.512695 -1.01074,-0.864258 -0.20508,-0.351562 -0.30762,-0.722656 -0.30762,-1.113281 0,-0.292969 0.0488,-0.556641 0.14649,-0.791016 0.10742,-0.224609 0.29297,-0.43457 0.55664,-0.629883 0.26367,-0.185546 0.63476,-0.361328 1.11328,-0.527343 0.47852,-0.166016 1.08887,-0.332032 1.83105,-0.498047 1.29883,-0.292969 2.36817,-0.644532 3.20801,-1.054688 0.83985,-0.410156 1.46485,-0.913086 1.875,-1.508789 0.41016,-0.595703 0.61524,-1.318359 0.61524,-2.167969 0,-0.693359 -0.14649,-1.328125 -0.43946,-1.904296 -0.2832,-0.576172 -0.69824,-1.074219 -1.24511,-1.494141 -0.53711,-0.410156 -1.18164,-0.732422 -1.9336,-0.966797 C 179.88769,-25.387695 179.05273,-25.5 178.125,-25.5 c -1.39648,0 -2.57813,0.249023 -3.54492,0.74707 -0.9668,0.498047 -1.69922,1.142578 -2.19727,1.933594 -0.49804,0.791016 -0.74707,1.625977 -0.74707,2.504883 h 2.72461 c 0.0391,-0.742188 0.25391,-1.333008 0.64453,-1.772461 0.39063,-0.429688 0.86914,-0.737305 1.43555,-0.922852 0.56641,-0.175781 1.12793,-0.263672 1.68457,-0.263672 0.74219,0 1.36231,0.09766 1.86035,0.292969 0.50781,0.195313 0.89356,0.463867 1.15723,0.805664 0.26367,0.341797 0.39551,0.732422 0.39551,1.171875 z"
         style="fill:#ffffff;fill-opacity:1;fill-rule:nonzero;stroke:none"
         id="path44" /></g><g
       id="g52"
       transform="translate(8,651.37891)"><path
         d="m 74.414062,-26.378906 z m 16.40625,12.158203 v -2.299805 H 79.277344 v 2.299805 z m -11.103515,9.169922 v -21.328125 h -2.827149 v 21.328125 z m 13.564453,0 v -21.328125 h -2.8125 v 21.328125 z m 2.548828,-21.328125 z m 1.347656,7.749023 v 0.336914 c 0,1.142578 0.166016,2.202149 0.498047,3.178711 0.332031,0.986328 0.810547,1.84082 1.435547,2.563477 0.625,0.732422 1.381832,1.298828 2.270512,1.699219 0.88867,0.410156 1.88476,0.615234 2.98828,0.615234 1.11328,0 2.11426,-0.205078 3.00293,-0.615234 0.89843,-0.400391 1.66015,-0.966797 2.28515,-1.699219 0.63477,-0.722657 1.11817,-1.577149 1.4502,-2.563477 0.33203,-0.976562 0.49804,-2.036133 0.49804,-3.178711 v -0.336914 c 0,-1.142578 -0.16601,-2.202148 -0.49804,-3.178711 -0.33203,-0.976562 -0.81543,-1.831054 -1.4502,-2.563476 -0.625,-0.722657 -1.38183,-1.289063 -2.2705,-1.699219 -0.87891,-0.400391 -1.875,-0.600586 -2.98829,-0.600586 -1.11328,0 -2.11425,0.200195 -3.00293,0.600586 -0.88867,0.410156 -1.650386,0.976562 -2.285152,1.699219 -0.625,0.732422 -1.103516,1.586914 -1.435547,2.563476 -0.332031,0.976563 -0.498047,2.036133 -0.498047,3.178711 z m 2.709961,0.336914 v -0.336914 c 0,-0.791015 0.09277,-1.538086 0.278325,-2.241211 0.18554,-0.693359 0.46386,-1.308594 0.83496,-1.845703 0.38086,-0.537109 0.85449,-0.961914 1.4209,-1.274414 0.5664,-0.302734 1.22558,-0.454101 1.97753,-0.454101 0.74219,0 1.39161,0.151367 1.94825,0.454101 0.5664,0.3125 1.03515,0.737305 1.40625,1.274414 0.37109,0.537109 0.64941,1.152344 0.83496,1.845703 0.19531,0.703125 0.29297,1.450196 0.29297,2.241211 v 0.336914 c 0,0.78125 -0.0977,1.518555 -0.29297,2.211914 -0.18555,0.703125 -0.46875,1.323243 -0.84961,1.860352 -0.3711,0.546875 -0.83985,0.976562 -1.40625,1.289062 -0.55664,0.3125 -1.21094,0.46875 -1.96289,0.46875 -0.74219,0 -1.39649,-0.15625 -1.96289,-0.46875 -0.55664,-0.3125 -1.02539,-0.742187 -1.40625,-1.289062 -0.3711,-0.537109 -0.64942,-1.157227 -0.83496,-1.860352 -0.185551,-0.693359 -0.278325,-1.430664 -0.278325,-2.211914 z m 13.051755,-8.085937 z m 4.77539,13.359375 v -13.359375 h -2.70996 v 15.849609 h 2.63672 l 0.0732,-2.490234 z m 4.95118,2.578125 -0.0147,-2.519532 c -0.22461,0.04883 -0.43946,0.07813 -0.64453,0.08789 -0.19532,0.01953 -0.41993,0.0293 -0.67383,0.0293 -0.625,0 -1.17676,-0.09766 -1.65528,-0.292969 -0.47851,-0.195312 -0.88378,-0.46875 -1.21582,-0.820312 -0.33203,-0.351563 -0.5957,-0.771485 -0.79101,-1.259766 -0.18555,-0.478515 -0.30762,-1.005859 -0.36621,-1.582031 l -0.76172,-0.439453 c 0,0.957031 0.0928,1.855469 0.27832,2.695312 0.19531,0.839844 0.49316,1.582031 0.89355,2.226563 0.40039,0.654297 0.90821,1.162109 1.52344,1.523437 0.625,0.371094 1.36719,0.556641 2.22656,0.556641 0.19532,0 0.41993,-0.02441 0.67383,-0.07324 0.25391,-0.03906 0.42969,-0.08301 0.52735,-0.131836 z m -0.14649,-15.9375 z m 11.41113,2.709961 v 8.159179 c 0,0.625 -0.12695,1.166993 -0.38086,1.625977 -0.24414,0.46875 -0.61523,0.830078 -1.11328,1.083984 -0.49804,0.253907 -1.11328,0.38086 -1.8457,0.38086 -0.68359,0 -1.28418,-0.117188 -1.80176,-0.351563 -0.50781,-0.234375 -0.9082,-0.541992 -1.20117,-0.922851 -0.2832,-0.38086 -0.4248,-0.791016 -0.4248,-1.230469 h -2.70996 c 0,0.566406 0.14648,1.12793 0.43945,1.68457 0.29297,0.556641 0.71289,1.05957 1.25976,1.508789 0.55664,0.458985 1.22071,0.820313 1.99219,1.083985 0.78125,0.273437 1.65039,0.410156 2.60742,0.410156 1.15235,0 2.16797,-0.195313 3.04688,-0.585938 0.88867,-0.390625 1.58203,-0.981445 2.08008,-1.772461 0.50781,-0.78125 0.76171,-1.762695 0.76171,-2.944335 v -7.382813 c 0,-0.527344 0.0439,-1.088867 0.13184,-1.68457 0.0977,-0.595703 0.23926,-1.108399 0.42481,-1.538086 v -0.234375 h -2.82715 c -0.13672,0.3125 -0.24414,0.727539 -0.32227,1.245117 -0.0781,0.527344 -0.11719,1.015625 -0.11719,1.464844 z m 0.46875,6.899414 0.0293,-1.904297 h -2.73926 c -0.77148,0 -1.45996,-0.06348 -2.06543,-0.19043 -0.60547,-0.117187 -1.11328,-0.297851 -1.52343,-0.541992 -0.41016,-0.244141 -0.72266,-0.551758 -0.9375,-0.922852 -0.21485,-0.361328 -0.32227,-0.786132 -0.32227,-1.274414 0,-0.498046 0.11231,-0.952148 0.33691,-1.362304 0.22461,-0.410157 0.56153,-0.737305 1.01075,-0.981446 0.45898,-0.234375 1.0205,-0.351562 1.68457,-0.351562 0.83007,0 1.5625,0.175781 2.19726,0.527344 0.63477,0.351562 1.1377,0.78125 1.50879,1.289062 0.38086,0.507813 0.58594,1.000977 0.61524,1.479492 l 1.15722,-1.303711 c -0.0684,-0.410156 -0.2539,-0.864257 -0.55664,-1.362304 -0.30273,-0.498047 -0.70801,-0.976563 -1.21582,-1.435547 -0.49805,-0.449219 -1.09375,-0.825196 -1.78711,-1.12793 -0.68359,-0.292969 -1.45508,-0.439453 -2.31445,-0.439453 -1.07422,0 -2.0166,0.209961 -2.82715,0.629883 -0.80078,0.419922 -1.42578,0.981445 -1.875,1.68457 -0.43945,0.712891 -0.65918,1.508789 -0.65918,2.387695 0,0.84961 0.16602,1.59668 0.49805,2.241211 0.33203,0.654297 0.81055,1.196289 1.43555,1.625977 0.62499,0.439453 1.37695,0.771484 2.25585,0.996094 0.87891,0.224609 1.86036,0.336914 2.94434,0.336914 z m 4.43848,-9.609375 z m 11.29395,4.204101 c 0,0.390625 -0.0879,0.751953 -0.26368,1.083985 -0.16601,0.341797 -0.51269,0.649414 -1.04003,0.922851 -0.51758,0.283203 -1.29883,0.527344 -2.34376,0.732422 -0.8789,0.185547 -1.6748,0.405274 -2.38769,0.65918 -0.70313,0.253906 -1.30371,0.561523 -1.80176,0.922851 -0.48828,0.361328 -0.86426,0.786133 -1.12793,1.274414 -0.26367,0.488282 -0.39551,1.059571 -0.39551,1.713868 0,0.625 0.13672,1.21582 0.41016,1.772461 0.2832,0.55664 0.67871,1.049804 1.18652,1.479492 0.51758,0.429687 1.1377,0.766601 1.86036,1.010742 0.72265,0.244141 1.52832,0.366211 2.41699,0.366211 1.26953,0 2.35351,-0.22461 3.25195,-0.673828 0.89844,-0.449219 1.58691,-1.049805 2.06543,-1.801758 0.47852,-0.742188 0.71777,-1.567383 0.71777,-2.475586 h -2.70996 c 0,0.439453 -0.13183,0.864258 -0.39551,1.274414 -0.2539,0.419922 -0.62988,0.766602 -1.12792,1.040039 -0.48829,0.273438 -1.08887,0.410156 -1.80176,0.410156 -0.75196,0 -1.36231,-0.117187 -1.83106,-0.351562 -0.45898,-0.224609 -0.7959,-0.512695 -1.01074,-0.864258 -0.20508,-0.351562 -0.30762,-0.722656 -0.30762,-1.113281 0,-0.292969 0.0488,-0.556641 0.14649,-0.791016 0.10742,-0.224609 0.29297,-0.43457 0.55664,-0.629883 0.26367,-0.185547 0.63476,-0.361328 1.11328,-0.527343 0.47852,-0.166016 1.08887,-0.332032 1.83105,-0.498047 1.29883,-0.292969 2.36817,-0.644531 3.20801,-1.054688 0.83985,-0.410156 1.46485,-0.913086 1.875,-1.508789 0.41016,-0.595703 0.61524,-1.318359 0.61524,-2.167969 0,-0.693359 -0.14649,-1.328125 -0.43946,-1.904296 -0.2832,-0.576172 -0.69824,-1.074219 -1.24511,-1.494141 -0.53711,-0.410156 -1.18164,-0.732422 -1.9336,-0.966797 -0.74218,-0.224609 -1.57715,-0.336914 -2.50488,-0.336914 -1.39648,0 -2.57813,0.249023 -3.54492,0.74707 -0.9668,0.498047 -1.69922,1.142578 -2.19727,1.933594 -0.49804,0.791016 -0.74707,1.625977 -0.74707,2.504883 h 2.72461 c 0.0391,-0.742188 0.25391,-1.333008 0.64453,-1.772461 0.39063,-0.429688 0.86914,-0.737305 1.43555,-0.922852 0.56641,-0.175781 1.12793,-0.263671 1.68457,-0.263671 0.74219,0 1.3623,0.09766 1.86035,0.292968 0.50781,0.195313 0.89356,0.463867 1.15723,0.805664 0.26367,0.341797 0.39551,0.732422 0.39551,1.171875 z"
         style="fill:#ffffff;fill-opacity:1;fill-rule:nonzero;stroke:none"
         id="path54" /></g><g
       id="g62"
       transform="translate(8,744.40625)"><path
         d="M 74.414062,-19.40625 Z M 79.716797,1.921875 V -19.40625 H 76.889648 V 1.921875 Z m 8.935547,-9.594727 v -2.314453 h -9.550782 v 2.314453 z m 1.450195,9.594727 V -0.392578 H 79.101562 v 2.314453 z m 0.512695,-21.328125 z m 4.775391,13.359375 V -19.40625 h -2.709961 v 15.849609 h 2.636719 l 0.07324,-2.490234 z m 4.951175,2.578125 -0.0147,-2.519531 c -0.22461,0.048828 -0.439455,0.078125 -0.644533,0.08789 -0.195312,0.019532 -0.419922,0.029297 -0.673828,0.029297 -0.625,0 -1.176758,-0.097656 -1.655273,-0.292968 C 96.875,-6.359375 96.469727,-6.632812 96.137695,-6.984375 95.805664,-7.335938 95.541992,-7.755859 95.34668,-8.244141 95.161133,-8.722656 95.039062,-9.25 94.980469,-9.826172 l -0.761719,-0.439453 c 0,0.957031 0.09277,1.855469 0.27832,2.695313 0.195313,0.839843 0.493164,1.582031 0.893555,2.226562 0.400391,0.654297 0.908203,1.162109 1.523437,1.523438 0.625,0.371093 1.367188,0.55664 2.226563,0.55664 0.195313,0 0.419922,-0.024414 0.673828,-0.073242 0.253907,-0.039063 0.429687,-0.083008 0.527347,-0.131836 z m 0.14648,-15.9375 z m 8.64258,-0.292969 c -1.10352,0 -2.10449,0.185547 -3.00293,0.556641 -0.88867,0.380859 -1.65527,0.913086 -2.2998,1.59668 -0.63477,0.683593 -1.12305,1.49414 -1.46485,2.43164 -0.3418,0.9375 -0.51269,1.962891 -0.51269,3.076172 v 0.615234 c 0,1.289063 0.19043,2.436524 0.57129,3.442383 0.38085,1.015625 0.89843,1.875 1.55273,2.578125 0.6543,0.703125 1.39648,1.235352 2.22656,1.59668 0.83008,0.361328 1.68946,0.541992 2.57813,0.541992 1.13281,0 2.10937,-0.195312 2.92968,-0.585937 0.83008,-0.390625 1.50879,-0.9375 2.03614,-1.640625 0.52734,-0.69336 0.91797,-1.513672 1.17187,-2.460938 0.25391,-0.9375 0.38086,-1.96289 0.38086,-3.076172 v -1.21582 h -11.83594 v 2.211914 h 9.12598 v 0.205078 c -0.0391,0.703125 -0.18555,1.386719 -0.43945,2.050781 -0.24414,0.664063 -0.63477,1.210938 -1.17188,1.640625 -0.53711,0.429688 -1.26953,0.644532 -2.19726,0.644532 -0.61524,0 -1.18164,-0.131836 -1.69922,-0.395508 -0.51758,-0.253906 -0.96192,-0.634766 -1.33301,-1.142578 -0.37109,-0.507813 -0.65918,-1.12793 -0.86426,-1.860352 -0.20508,-0.732422 -0.30762,-1.577148 -0.30762,-2.53418 v -0.615234 c 0,-0.751953 0.10254,-1.459961 0.30762,-2.124023 0.21485,-0.654297 0.52246,-1.230469 0.92285,-1.728516 0.41016,-0.498047 0.90332,-0.888672 1.4795,-1.171875 0.58593,-0.283203 1.25,-0.424805 1.99218,-0.424805 0.95704,0 1.76758,0.195313 2.43164,0.585938 0.66407,0.390625 1.24512,0.913086 1.74317,1.567383 l 1.64062,-1.303711 c -0.34179,-0.517578 -0.77636,-1.010743 -1.30371,-1.479493 -0.52734,-0.46875 -1.17676,-0.849609 -1.94824,-1.142578 -0.76172,-0.292968 -1.66504,-0.439453 -2.70996,-0.439453 z m 7.26562,0.292969 z M 128.4375,-25.5 v 18.896484 l 0.23437,3.046875 h 2.49024 V -25.5 Z m -10.64941,13.842773 v 0.307618 c 0,1.210937 0.1416,2.30957 0.4248,3.295898 0.2832,0.996094 0.69824,1.850586 1.24512,2.563477 0.54687,0.71289 1.20605,1.259765 1.97754,1.640625 0.78125,0.390625 1.66992,0.585937 2.66601,0.585937 0.9961,0 1.87012,-0.175781 2.62207,-0.527344 0.76172,-0.341796 1.40625,-0.844726 1.9336,-1.508789 0.53711,-0.654297 0.96191,-1.445312 1.27441,-2.373047 0.3125,-0.927734 0.52734,-1.977539 0.64453,-3.149414 v -1.347656 c -0.10742,-1.162109 -0.31738,-2.207031 -0.62988,-3.134766 -0.3125,-0.927734 -0.73731,-1.71875 -1.27442,-2.373046 -0.52734,-0.654297 -1.17675,-1.157227 -1.94824,-1.508789 -0.76172,-0.341797 -1.6455,-0.512696 -2.65136,-0.512696 -0.97657,0 -1.85547,0.200196 -2.63672,0.600586 -0.77149,0.400391 -1.43067,0.961914 -1.97754,1.684571 -0.53711,0.722656 -0.95215,1.572265 -1.24512,2.548828 -0.2832,0.986328 -0.4248,2.055664 -0.4248,3.208007 z m 2.72461,0.307618 v -0.307618 c 0,-0.791015 0.083,-1.538085 0.24902,-2.241211 0.16601,-0.693359 0.41992,-1.308593 0.76172,-1.845703 0.35156,-0.537109 0.79101,-0.961914 1.31836,-1.274414 0.53711,-0.302734 1.17187,-0.454101 1.90429,-0.454101 0.89844,0 1.64551,0.195312 2.24122,0.585937 0.60546,0.390625 1.08886,0.903321 1.45019,1.538086 0.36133,0.644531 0.63965,1.333008 0.83496,2.06543 v 3.530273 c -0.10742,0.53711 -0.27832,1.059571 -0.51269,1.567383 -0.22461,0.507813 -0.51758,0.961914 -0.87891,1.362305 -0.36133,0.410156 -0.80078,0.732422 -1.31836,0.966797 -0.50781,0.24414 -1.10352,0.366211 -1.78711,0.366211 -0.74219,0 -1.38183,-0.15625 -1.91895,-0.46875 -0.5371,-0.3125 -0.98144,-0.742188 -1.333,-1.289063 -0.3418,-0.537109 -0.59571,-1.157226 -0.76172,-1.860351 -0.16602,-0.703125 -0.24902,-1.450196 -0.24902,-2.241211 z m 12.93457,-8.056641 z m 11.76269,3.662109 v 12.1875 h 2.72461 V -19.40625 h -2.59277 z m 0.5127,3.339844 1.12793,0.0293 c 0,-1.054688 -0.11231,-2.03125 -0.33692,-2.929688 -0.21484,-0.888671 -0.5664,-1.660156 -1.05469,-2.314453 -0.48828,-0.654297 -1.12793,-1.166992 -1.91894,-1.538086 -0.79102,-0.361328 -1.75293,-0.541992 -2.88574,-0.541992 -0.77149,0 -1.4795,0.112305 -2.12403,0.336914 -0.63476,0.22461 -1.18164,0.571289 -1.64062,1.040039 -0.45899,0.46875 -0.81543,1.079102 -1.06934,1.831055 -0.24414,0.751953 -0.36621,1.655273 -0.36621,2.709961 v 10.224609 h 2.70996 v -10.253906 c 0,-0.712891 0.0781,-1.303711 0.23438,-1.772461 0.16601,-0.458984 0.38574,-0.825195 0.65918,-1.098633 0.2832,-0.263671 0.5957,-0.449218 0.9375,-0.55664 0.35156,-0.107422 0.71289,-0.161133 1.08398,-0.161133 1.15234,0 2.06543,0.219726 2.73926,0.65918 0.67383,0.449218 1.15723,1.049804 1.45019,1.801757 0.30274,0.761719 0.45411,1.606446 0.45411,2.53418 z M 150,-19.40625 Z m 8.64258,-0.292969 c -1.10352,0 -2.10449,0.185547 -3.00293,0.556641 -0.88867,0.380859 -1.65528,0.913086 -2.29981,1.59668 -0.63476,0.683593 -1.12304,1.49414 -1.46484,2.43164 -0.3418,0.9375 -0.51269,1.962891 -0.51269,3.076172 v 0.615234 c 0,1.289063 0.19042,2.436524 0.57128,3.442383 0.38086,1.015625 0.89844,1.875 1.55274,2.578125 0.65429,0.703125 1.39648,1.235352 2.22656,1.59668 0.83008,0.361328 1.68945,0.541992 2.57813,0.541992 1.13281,0 2.10937,-0.195312 2.92968,-0.585937 0.83008,-0.390625 1.50879,-0.9375 2.03614,-1.640625 0.52734,-0.69336 0.91796,-1.513672 1.17187,-2.460938 0.25391,-0.9375 0.38086,-1.96289 0.38086,-3.076172 v -1.21582 h -11.83594 v 2.211914 h 9.12598 v 0.205078 c -0.0391,0.703125 -0.18555,1.386719 -0.43945,2.050781 -0.24414,0.664063 -0.63477,1.210938 -1.17188,1.640625 -0.53711,0.429688 -1.26953,0.644532 -2.19726,0.644532 -0.61524,0 -1.18165,-0.131836 -1.69922,-0.395508 -0.51758,-0.253906 -0.96192,-0.634766 -1.33301,-1.142578 -0.3711,-0.507813 -0.65918,-1.12793 -0.86426,-1.860352 -0.20508,-0.732422 -0.30762,-1.577148 -0.30762,-2.53418 v -0.615234 c 0,-0.751953 0.10254,-1.459961 0.30762,-2.124023 0.21484,-0.654297 0.52246,-1.230469 0.92285,-1.728516 0.41016,-0.498047 0.90332,-0.888672 1.47949,-1.171875 0.58594,-0.283203 1.25,-0.424805 1.99219,-0.424805 0.95703,0 1.76758,0.195313 2.43164,0.585938 0.66407,0.390625 1.24512,0.913086 1.74317,1.567383 l 1.64062,-1.303711 c -0.3418,-0.517578 -0.77636,-1.010743 -1.30371,-1.479493 -0.52734,-0.46875 -1.17676,-0.849609 -1.94824,-1.142578 -0.76172,-0.292968 -1.66504,-0.439453 -2.70996,-0.439453 z m 0.4541,22.792969 3.63281,-3.999023 v -0.146485 h -2.25586 l -2.19726,2.475586 -2.18262,-2.475586 h -2.22656 v 0.161133 l 3.58886,3.984375 z m 6.81152,-22.5 z m 4.77539,12.46582 v -12.46582 h -2.70996 v 15.849609 h 2.56348 z m -0.64453,-3.940429 -1.12793,0.04394 c 0.01,1.083984 0.1709,2.084961 0.4834,3.00293 0.3125,0.927734 0.75195,1.733398 1.31836,2.416992 0.56641,0.683594 1.24023,1.210937 2.02148,1.582031 0.79102,0.380859 1.66504,0.571289 2.62208,0.571289 0.78124,0 1.48437,-0.107422 2.10937,-0.322266 0.625,-0.205078 1.15723,-0.537109 1.59668,-0.996093 0.44922,-0.458985 0.79102,-1.054688 1.02539,-1.78711 0.23438,-0.722656 0.35156,-1.606445 0.35156,-2.651367 v -10.385742 h -2.72461 v 10.415039 c 0,0.830078 -0.12207,1.494141 -0.36621,1.992188 -0.24414,0.507812 -0.60058,0.874023 -1.06933,1.098632 -0.46875,0.234375 -1.04493,0.351563 -1.72852,0.351563 -0.67383,0 -1.28906,-0.141602 -1.8457,-0.424805 -0.54688,-0.283203 -1.02051,-0.673828 -1.4209,-1.171875 -0.39063,-0.498047 -0.69824,-1.069336 -0.92285,-1.713867 -0.21485,-0.634766 -0.32227,-1.308594 -0.32227,-2.021484 z m 12.45117,-8.525391 z m 8.40821,1.933594 c 0.64453,0 1.24023,0.131836 1.78711,0.395508 0.54687,0.263671 0.99609,0.625 1.34765,1.083984 0.35157,0.46875 0.55176,1.000976 0.60059,1.59668 h 2.57812 c -0.0488,-0.9375 -0.36621,-1.811524 -0.95214,-2.622071 -0.57618,-0.800781 -1.33301,-1.450195 -2.27051,-1.948242 -0.9375,-0.488281 -1.96778,-0.732422 -3.09082,-0.732422 -1.19141,0 -2.23145,0.209961 -3.12012,0.629883 -0.87891,0.419922 -1.61133,0.996094 -2.19727,1.728516 -0.57617,0.732422 -1.01074,1.572265 -1.30371,2.519531 -0.2832,0.957031 -0.4248,1.967773 -0.4248,3.032227 v 0.615234 c 0,1.064453 0.1416,2.070312 0.4248,3.017578 0.29297,0.957031 0.72754,1.801758 1.30371,2.53418 0.58594,0.732422 1.31836,1.308593 2.19727,1.728515 0.88867,0.419922 1.92871,0.629883 3.12012,0.629883 1.24023,0 2.32422,-0.253906 3.25195,-0.761719 0.92773,-0.498047 1.65527,-1.18164 2.18262,-2.050781 0.53711,-0.859375 0.83008,-1.835937 0.8789,-2.929687 h -2.57812 c -0.0488,0.654297 -0.23438,1.245117 -0.55664,1.772461 -0.3125,0.527343 -0.74219,0.947265 -1.28906,1.259765 -0.53711,0.322266 -1.167,0.483399 -1.88965,0.483399 -0.83008,0 -1.52832,-0.166016 -2.09473,-0.498047 -0.55664,-0.322266 -1.00098,-0.761719 -1.33301,-1.31836 -0.32226,-0.546875 -0.55664,-1.157226 -0.70312,-1.831054 -0.13672,-0.664063 -0.20508,-1.342774 -0.20508,-2.036133 v -0.615234 c 0,-0.69336 0.0684,-1.376954 0.20508,-2.050782 0.13672,-0.673828 0.36621,-1.284179 0.68847,-1.831054 0.33204,-0.546875 0.77637,-0.986329 1.33301,-1.31836 0.56641,-0.322265 1.26953,-0.483398 2.10938,-0.483398 z m 7.29492,-1.933594 z m 5.00976,15.849609 V -19.40625 h -2.7246 v 15.849609 z m -2.92968,4.204102 c 0,0.439453 0.13183,0.810547 0.3955,1.113281 0.27344,0.302735 0.67383,0.454102 1.20118,0.454102 0.51757,0 0.91308,-0.151367 1.18652,-0.454102 0.2832,-0.302734 0.42481,-0.673828 0.42481,-1.113281 0,-0.419922 -0.14161,-0.78125 -0.42481,-1.083984 -0.27344,-0.292969 -0.66895,-0.439454 -1.18652,-0.439454 -0.52735,0 -0.92774,0.146485 -1.20118,0.439454 -0.26367,0.302734 -0.3955,0.664062 -0.3955,1.083984 z m 5.21484,-20.053711 z m 11.41113,2.709961 v 8.15918 c 0,0.625 -0.12695,1.166992 -0.38086,1.625976 -0.24414,0.46875 -0.61523,0.830078 -1.11328,1.083985 -0.49804,0.253906 -1.11328,0.380859 -1.8457,0.380859 -0.68359,0 -1.28418,-0.117188 -1.80176,-0.351563 -0.50781,-0.234375 -0.9082,-0.541992 -1.20117,-0.922851 -0.2832,-0.380859 -0.4248,-0.791016 -0.4248,-1.230469 h -2.70997 c 0,0.566406 0.14649,1.12793 0.43946,1.68457 0.29297,0.556641 0.71289,1.059571 1.25976,1.50879 0.55664,0.458984 1.22071,0.820312 1.99219,1.083984 0.78125,0.273437 1.65039,0.410156 2.60742,0.410156 1.15235,0 2.16797,-0.195312 3.04688,-0.585937 0.88867,-0.390625 1.58203,-0.981446 2.08008,-1.772461 0.50781,-0.78125 0.76171,-1.762696 0.76171,-2.944336 v -7.382813 c 0,-0.527343 0.0439,-1.088867 0.13184,-1.68457 0.0977,-0.595703 0.23926,-1.108399 0.42481,-1.538086 v -0.234375 h -2.82715 c -0.13672,0.3125 -0.24414,0.727539 -0.32227,1.245117 -0.0781,0.527344 -0.11719,1.015625 -0.11719,1.464844 z m 0.46875,6.899414 0.0293,-1.904297 h -2.73926 c -0.77148,0 -1.45996,-0.06348 -2.06543,-0.19043 -0.60546,-0.117187 -1.11328,-0.297851 -1.52343,-0.541992 -0.41016,-0.24414 -0.72266,-0.551758 -0.9375,-0.922851 -0.21485,-0.361328 -0.32227,-0.786133 -0.32227,-1.274414 0,-0.498047 0.1123,-0.952149 0.33691,-1.362305 0.22461,-0.410156 0.56153,-0.737305 1.01075,-0.981445 0.45898,-0.234375 1.0205,-0.351563 1.68457,-0.351563 0.83007,0 1.5625,0.175781 2.19726,0.527344 0.63477,0.351562 1.1377,0.78125 1.50879,1.289062 0.38086,0.507813 0.58594,1.000977 0.61524,1.479493 l 1.15722,-1.303711 c -0.0684,-0.410157 -0.2539,-0.864258 -0.55664,-1.362305 -0.30273,-0.498047 -0.70801,-0.976563 -1.21582,-1.435547 -0.49805,-0.449219 -1.09375,-0.825195 -1.78711,-1.12793 -0.68359,-0.292968 -1.45508,-0.439453 -2.31445,-0.439453 -1.07422,0 -2.0166,0.209961 -2.82715,0.629883 -0.80078,0.419922 -1.42578,0.981445 -1.875,1.68457 -0.43945,0.712891 -0.65918,1.508789 -0.65918,2.387696 0,0.849609 0.16602,1.596679 0.49805,2.241211 0.33203,0.654297 0.81054,1.196289 1.43554,1.625976 0.625,0.439453 1.37696,0.771485 2.25586,0.996094 0.87891,0.224609 1.86036,0.336914 2.94434,0.336914 z"
         style="fill:#ffffff;fill-opacity:1;fill-rule:nonzero;stroke:none"
         id="path64" /></g><g
       id="g72"
       transform="translate(318,1026.2656)"><path
         d="m 348.79687,-32.265625 z m 16.59375,31.101563 -11.29687,-31.101563 h -4.61719 l 13.00781,34.125 h 2.97657 l -0.0703,-3.023437 z m 9.46875,-31.101563 -11.32031,31.101563 -0.0703,3.023437 h 2.97656 l 13.05469,-34.125 h -4.64063 z m -0.58593,12.632813 v -3.703126 h -19.17188 v 3.703126 z m 5.83593,-12.632813 z m 7.64063,19.945313 v -19.945313 h -4.33594 V -6.90625 h 4.10156 z m -1.03125,-6.304688 -1.80469,0.07031 c 0.0156,1.734376 0.27344,3.335938 0.77344,4.804688 0.5,1.484375 1.20312,2.773438 2.10937,3.867188 0.90625,1.09375 1.98438,1.9375 3.23438,2.53125 1.26562,0.609374 2.66406,0.914062 4.19531,0.914062 1.25,0 2.375,-0.171875 3.375,-0.515625 1,-0.328125 1.85156,-0.859375 2.55469,-1.59375 0.71875,-0.734375 1.26562,-1.6875 1.64062,-2.859375 0.375,-1.15625 0.5625,-2.570312 0.5625,-4.242188 V -32.265627 H 399 v 16.664063 c 0,1.328124 -0.19531,2.390624 -0.58594,3.1875 -0.39062,0.8125 -0.96094,1.398437 -1.71094,1.757812 -0.75,0.375 -1.67187,0.5625 -2.76562,0.5625 -1.07813,0 -2.0625,-0.226562 -2.95313,-0.679688 -0.875,-0.453124 -1.63281,-1.078124 -2.27343,-1.875 -0.625,-0.796874 -1.11719,-1.710937 -1.47657,-2.742187 -0.34375,-1.015625 -0.51562,-2.09375 -0.51562,-3.234375 z m 19.92188,-13.640625 z m 18.25781,4.335937 V -14.875 c 0,1 -0.20313,1.867188 -0.60938,2.601562 -0.39062,0.75 -0.98437,1.328126 -1.78125,1.734376 -0.79687,0.40625 -1.78125,0.609374 -2.95312,0.609374 -1.09375,0 -2.05469,-0.1875 -2.88282,-0.5625 -0.8125,-0.375 -1.45312,-0.867187 -1.92187,-1.476562 -0.45313,-0.609375 -0.67969,-1.265625 -0.67969,-1.96875 h -4.33594 c 0,0.90625 0.23438,1.804688 0.70313,2.695312 0.46875,0.890626 1.14062,1.695313 2.01562,2.414063 0.89063,0.734375 1.95313,1.3125 3.18751,1.734375 1.24999,0.4375 2.64062,0.65625 4.17187,0.65625 1.84375,0 3.46875,-0.3125 4.875,-0.9375 1.42187,-0.625 2.53125,-1.570312 3.32812,-2.835938 0.8125,-1.25 1.21875,-2.820312 1.21875,-4.710937 v -11.8125 c 0,-0.84375 0.0703,-1.742187 0.21094,-2.695313 0.15625,-0.953124 0.38281,-1.773437 0.67969,-2.460937 v -0.375 h -4.52344 c -0.21875,0.5 -0.39062,1.164063 -0.51562,1.992187 -0.125,0.84375 -0.1875,1.625 -0.1875,2.34375 z m 0.75,11.039063 0.0469,-3.046875 h -4.38281 c -1.23438,0 -2.33594,-0.101562 -3.30469,-0.304688 -0.96875,-0.1875 -1.78125,-0.476562 -2.4375,-0.867187 -0.65625,-0.390625 -1.15625,-0.882813 -1.5,-1.476563 -0.34375,-0.578124 -0.51562,-1.257812 -0.51562,-2.039062 0,-0.796875 0.17968,-1.523438 0.53906,-2.179688 0.35937,-0.65625 0.89844,-1.179687 1.61719,-1.570312 0.73437,-0.375 1.63281,-0.5625 2.69531,-0.5625 1.32812,0 2.5,0.28125 3.51562,0.84375 1.01563,0.5625 1.82032,1.25 2.41407,2.0625 0.60937,0.8125 0.9375,1.601562 0.98437,2.367188 L 427.17187,-25.75 c -0.10937,-0.65625 -0.40625,-1.382812 -0.89062,-2.179688 -0.48438,-0.796874 -1.13281,-1.5625 -1.94531,-2.296874 -0.79688,-0.71875 -1.75,-1.320313 -2.85938,-1.804688 -1.09375,-0.46875 -2.32812,-0.703125 -3.70312,-0.703125 -1.71875,0 -3.22657,0.335937 -4.52344,1.007813 -1.28125,0.671874 -2.28125,1.570312 -3,2.695312 -0.70313,1.140625 -1.05469,2.414062 -1.05469,3.820312 0,1.359376 0.26563,2.554688 0.79688,3.585938 0.53125,1.046875 1.29687,1.914062 2.29687,2.601562 1,0.703126 2.20313,1.234376 3.60938,1.59375 1.40625,0.359376 2.97656,0.539063 4.71093,0.539063 z m -7.75782,13.734375 4.54688,6.890625 h 5.22656 L 421.38281,-3.15625 Z M 432.75,-32.265625 Z m 8.01562,36 v -36 h -4.35937 v 36 z m 3.65625,-36 z m 8.01563,25.359375 v -25.359375 h -4.35938 V -6.90625 Z m -4.6875,6.726562 c 0,0.703126 0.21094,1.296876 0.63281,1.78125 0.4375,0.484376 1.07813,0.726563 1.92188,0.726563 0.82812,0 1.46093,-0.242187 1.89843,-0.726563 0.45313,-0.484374 0.67969,-1.078124 0.67969,-1.78125 0,-0.671874 -0.22656,-1.25 -0.67969,-1.734374 -0.4375,-0.46875 -1.07031,-0.703126 -1.89843,-0.703126 -0.84375,0 -1.48438,0.234376 -1.92188,0.703126 -0.42187,0.484374 -0.63281,1.0625 -0.63281,1.734374 z m 8.34375,-32.085937 z m 18.07031,6.726563 c 0,0.625 -0.14062,1.203124 -0.42187,1.734374 -0.26563,0.546876 -0.82032,1.039063 -1.66407,1.476563 -0.82812,0.453125 -2.07812,0.84375 -3.75,1.171875 -1.40625,0.296875 -2.67968,0.648438 -3.82031,1.054688 -1.125,0.40625 -2.08594,0.898437 -2.88281,1.476562 -0.78125,0.578125 -1.38281,1.257812 -1.80469,2.039062 -0.42187,0.78125 -0.63281,1.695313 -0.63281,2.742188 0,1 0.21875,1.945312 0.65625,2.835938 0.45312,0.890624 1.08594,1.679687 1.89844,2.367187 0.82812,0.6875 1.82031,1.226563 2.97656,1.617187 1.15625,0.390626 2.44531,0.585938 3.86719,0.585938 2.03125,0 3.76562,-0.359375 5.20312,-1.078125 1.4375,-0.71875 2.53906,-1.679687 3.30469,-2.882813 0.76562,-1.1875 1.14844,-2.507812 1.14844,-3.960937 h -4.33594 c 0,0.703125 -0.21094,1.382813 -0.63281,2.039063 -0.40625,0.671874 -1.00782,1.226562 -1.80469,1.664062 -0.78125,0.4375 -1.74219,0.65625 -2.88281,0.65625 -1.20313,0 -2.17969,-0.1875 -2.92969,-0.5625 -0.73438,-0.359375 -1.27344,-0.820312 -1.61719,-1.382812 -0.32812,-0.5625 -0.49219,-1.15625 -0.49219,-1.78125 0,-0.46875 0.0781,-0.890626 0.23438,-1.265626 0.17187,-0.359374 0.46875,-0.695312 0.89062,-1.007812 0.42188,-0.296875 1.01563,-0.578125 1.78125,-0.84375 0.76563,-0.265625 1.74219,-0.53125 2.92969,-0.796875 2.07813,-0.46875 3.78906,-1.03125 5.13281,-1.6875 1.34375,-0.65625 2.34375,-1.460937 3,-2.414063 0.65625,-0.953124 0.98438,-2.109374 0.98438,-3.46875 0,-1.109374 -0.23438,-2.125 -0.70313,-3.046874 -0.45312,-0.921876 -1.11718,-1.71875 -1.99218,-2.390626 -0.85938,-0.65625 -1.89063,-1.171874 -3.09375,-1.546874 -1.1875,-0.359376 -2.52344,-0.539063 -4.00782,-0.539063 -2.23437,0 -4.125,0.398437 -5.67187,1.195313 -1.54688,0.796874 -2.71875,1.828124 -3.51563,3.09375 -0.79687,1.265624 -1.19531,2.601562 -1.19531,4.007812 h 4.35938 c 0.0625,-1.1875 0.40625,-2.132812 1.03125,-2.835938 0.625,-0.6875 1.39062,-1.179687 2.29687,-1.476562 0.90625,-0.28125 1.80469,-0.421875 2.69531,-0.421875 1.1875,0 2.17969,0.15625 2.97657,0.46875 0.8125,0.3125 1.42968,0.742187 1.85156,1.289063 0.42187,0.546874 0.63281,1.171874 0.63281,1.875 z m 6.72656,-6.726563 z m 13.82813,-0.46875 c -1.76563,0 -3.36719,0.296875 -4.80469,0.890625 -1.42187,0.609375 -2.64844,1.460938 -3.67969,2.554688 -1.01562,1.09375 -1.79687,2.390624 -2.34375,3.890624 -0.54687,1.5 -0.82031,3.140626 -0.82031,4.921876 v 0.984374 c 0,2.0625 0.30469,3.898438 0.91406,5.507813 0.60938,1.625 1.4375,3 2.48438,4.125 1.04687,1.125 2.23437,1.976563 3.5625,2.554687 1.32812,0.578126 2.70312,0.867188 4.125,0.867188 1.8125,0 3.375,-0.3125 4.6875,-0.9375 1.32812,-0.625 2.41406,-1.5 3.25781,-2.625 0.84375,-1.109375 1.46875,-2.421875 1.875,-3.9375 0.40625,-1.5 0.60938,-3.140625 0.60938,-4.921875 v -1.945313 h -18.9375 v 3.539063 H 500.25 v 0.328125 c -0.0625,1.125 -0.29688,2.21875 -0.70313,3.28125 -0.39062,1.0625 -1.01562,1.9375 -1.875,2.625 -0.85937,0.6875 -2.03124,1.03125 -3.51562,1.03125 -0.98438,0 -1.89063,-0.210938 -2.71875,-0.632812 -0.82813,-0.40625 -1.53906,-1.015626 -2.13281,-1.828126 -0.59375,-0.8125 -1.05469,-1.804687 -1.38282,-2.976562 -0.32812,-1.171875 -0.49218,-2.523438 -0.49218,-4.054688 v -0.984374 c 0,-1.203126 0.16406,-2.335938 0.49218,-3.398438 0.34375,-1.046875 0.83594,-1.96875 1.47657,-2.765625 0.65625,-0.796875 1.44531,-1.421875 2.36718,-1.875 0.9375,-0.453125 2,-0.679687 3.1875,-0.679687 1.53125,0 2.82813,0.3125 3.89063,0.9375 1.0625,0.625 1.99219,1.460937 2.78906,2.507812 l 2.625,-2.085938 c -0.54687,-0.828124 -1.24219,-1.617187 -2.08594,-2.367187 -0.84375,-0.75 -1.88281,-1.359375 -3.11718,-1.828125 -1.21875,-0.46875 -2.66407,-0.703125 -4.33594,-0.703125 z m 23.53125,0.46875 z m 19.28906,4.921875 V 3.734375 h 4.35938 v -36 h -3.98438 z m -17.0625,7.476562 V -19.375 c 0,1.9375 0.23438,3.695312 0.70313,5.273438 0.48437,1.59375 1.16406,2.960937 2.03906,4.101562 0.89063,1.140625 1.94531,2.015625 3.16406,2.625 1.23438,0.625 2.60938,0.9375 4.125,0.9375 1.59375,0 2.98438,-0.28125 4.17188,-0.84375 1.20312,-0.546875 2.21875,-1.351562 3.04687,-2.414062 0.84375,-1.046876 1.50782,-2.3125 1.99219,-3.796876 0.48437,-1.484374 0.82031,-3.164062 1.00781,-5.039062 v -2.15625 c -0.17187,-1.859375 -0.50781,-3.53125 -1.00781,-5.015625 -0.48437,-1.484375 -1.14844,-2.75 -1.99219,-3.796875 -0.82812,-1.046875 -1.84375,-1.851562 -3.04687,-2.414062 -1.20313,-0.546876 -2.60938,-0.820313 -4.21875,-0.820313 -1.48438,0 -2.84375,0.320313 -4.07813,0.960937 -1.21875,0.640626 -2.27343,1.539063 -3.16406,2.695313 -0.875,1.15625 -1.55469,2.515625 -2.03906,4.078125 -0.46875,1.578125 -0.70313,3.289062 -0.70313,5.132812 z m 4.35938,0.492188 v -0.492188 c 0,-1.265624 0.125,-2.453124 0.375,-3.5625 0.26562,-1.109374 0.67187,-2.085937 1.21875,-2.929687 0.54687,-0.84375 1.24219,-1.507813 2.08593,-1.992187 0.84375,-0.46875 1.85157,-0.703126 3.02344,-0.703126 1.4375,0 2.61719,0.304688 3.53906,0.914063 0.9375,0.609375 1.6875,1.414063 2.25,2.414063 0.5625,1 1,2.085937 1.3125,3.257812 v 5.648438 c -0.1875,0.859374 -0.46093,1.6875 -0.82031,2.484374 -0.34375,0.8125 -0.79687,1.53125 -1.35937,2.15625 -0.54688,0.640626 -1.22656,1.148438 -2.03907,1.523438 -0.79687,0.375 -1.74218,0.5625 -2.83593,0.5625 -1.1875,0 -2.21094,-0.25 -3.07032,-0.75 -0.84374,-0.484375 -1.53906,-1.15625 -2.08593,-2.015625 -0.54688,-0.84375 -0.95313,-1.828125 -1.21875,-2.953125 -0.25,-1.109375 -0.375,-2.296875 -0.375,-3.5625 z m 20.50781,-12.890625 z m 13.82813,-0.46875 c -1.76563,0 -3.36719,0.296875 -4.80469,0.890625 -1.42188,0.609375 -2.64844,1.460938 -3.67969,2.554688 -1.01562,1.09375 -1.79688,2.390624 -2.34375,3.890624 -0.54687,1.5 -0.82031,3.140626 -0.82031,4.921876 v 0.984374 c 0,2.0625 0.30468,3.898438 0.91406,5.507813 0.60937,1.625 1.4375,3 2.48437,4.125 1.04688,1.125 2.23438,1.976563 3.56251,2.554687 1.32812,0.578126 2.70312,0.867188 4.125,0.867188 1.81249,0 3.375,-0.3125 4.6875,-0.9375 1.32812,-0.625 2.41406,-1.5 3.25781,-2.625 0.84375,-1.109375 1.46875,-2.421875 1.875,-3.9375 0.40625,-1.5 0.60937,-3.140625 0.60937,-4.921875 v -1.945313 h -18.9375 v 3.539063 h 14.60156 v 0.328125 c -0.0625,1.125 -0.29687,2.21875 -0.70312,3.28125 -0.39062,1.0625 -1.01562,1.9375 -1.875,2.625 -0.85938,0.6875 -2.03125,1.03125 -3.51562,1.03125 -0.98438,0 -1.89063,-0.210938 -2.71876,-0.632812 -0.82812,-0.40625 -1.53906,-1.015626 -2.13281,-1.828126 -0.59375,-0.8125 -1.05469,-1.804687 -1.38281,-2.976562 -0.32813,-1.171875 -0.49219,-2.523438 -0.49219,-4.054688 v -0.984374 c 0,-1.203126 0.16406,-2.335938 0.49219,-3.398438 0.34375,-1.046875 0.83594,-1.96875 1.47656,-2.765625 0.65625,-0.796875 1.44532,-1.421875 2.36719,-1.875 0.9375,-0.453125 2,-0.679687 3.1875,-0.679687 1.53125,0 2.82813,0.3125 3.89063,0.9375 1.06249,0.625 1.99218,1.460937 2.78906,2.507812 l 2.625,-2.085938 c -0.54688,-0.828124 -1.24219,-1.617187 -2.08594,-2.367187 -0.84375,-0.75 -1.88281,-1.359375 -3.11719,-1.828125 -1.21875,-0.46875 -2.66406,-0.703125 -4.33593,-0.703125 z m 23.53124,0.46875 z m 23.48438,34.125 h 4.5 v -23.085937 c 0,-2.5625 -0.57031,-4.695313 -1.71094,-6.398438 -1.14062,-1.703125 -2.65625,-2.984375 -4.54687,-3.84375 -1.875,-0.84375 -3.91407,-1.265625 -6.11719,-1.265625 -2.3125,0 -4.40625,0.421875 -6.28125,1.265625 -1.85937,0.859375 -3.33594,2.140625 -4.42969,3.84375 -1.07812,1.703125 -1.61718,3.835938 -1.61718,6.398438 V 1.859375 h 4.47656 v -23.085937 c 0,-1.78125 0.32812,-3.25 0.98437,-4.40625 0.65625,-1.15625 1.57031,-2.015626 2.74219,-2.578126 1.1875,-0.5625 2.5625,-0.84375 4.125,-0.84375 1.57812,0 2.95312,0.28125 4.125,0.84375 1.1875,0.5625 2.10937,1.421876 2.76562,2.578126 0.65625,1.15625 0.98438,2.625 0.98438,4.40625 z m 7.64062,-34.125 z m 18.07032,6.726563 c 0,0.625 -0.14063,1.203124 -0.42188,1.734374 -0.26562,0.546876 -0.82031,1.039063 -1.66406,1.476563 -0.82812,0.453125 -2.07812,0.84375 -3.75,1.171875 -1.40625,0.296875 -2.67969,0.648438 -3.82031,1.054688 -1.125,0.40625 -2.08594,0.898437 -2.88282,1.476562 -0.78125,0.578125 -1.38281,1.257812 -1.80468,2.039062 -0.42188,0.78125 -0.63282,1.695313 -0.63282,2.742188 0,1 0.21875,1.945312 0.65625,2.835938 0.45313,0.890624 1.08594,1.679687 1.89844,2.367187 0.82813,0.6875 1.82032,1.226563 2.97656,1.617187 1.15626,0.390626 2.44532,0.585938 3.86719,0.585938 2.03125,0 3.76563,-0.359375 5.20313,-1.078125 1.4375,-0.71875 2.53906,-1.679687 3.30468,-2.882813 0.76563,-1.1875 1.14844,-2.507812 1.14844,-3.960937 h -4.33594 c 0,0.703125 -0.21093,1.382813 -0.63281,2.039063 -0.40625,0.671874 -1.00781,1.226562 -1.80469,1.664062 -0.78125,0.4375 -1.74218,0.65625 -2.88281,0.65625 -1.20312,0 -2.17969,-0.1875 -2.92969,-0.5625 -0.73437,-0.359375 -1.27343,-0.820312 -1.61718,-1.382812 -0.32813,-0.5625 -0.49219,-1.15625 -0.49219,-1.78125 0,-0.46875 0.0781,-0.890626 0.23437,-1.265626 0.17188,-0.359374 0.46876,-0.695312 0.89063,-1.007812 0.42187,-0.296875 1.01562,-0.578125 1.78125,-0.84375 0.76562,-0.265625 1.74219,-0.53125 2.92969,-0.796875 2.07812,-0.46875 3.78906,-1.03125 5.13281,-1.6875 1.34375,-0.65625 2.34375,-1.460937 3,-2.414063 0.65625,-0.953124 0.98438,-2.109374 0.98438,-3.46875 0,-1.109374 -0.23438,-2.125 -0.70313,-3.046874 -0.45313,-0.921876 -1.11719,-1.71875 -1.99219,-2.390626 -0.85937,-0.65625 -1.89062,-1.171874 -3.09375,-1.546874 -1.1875,-0.359376 -2.52344,-0.539063 -4.00781,-0.539063 -2.23438,0 -4.125,0.398437 -5.67188,1.195313 -1.54687,0.796874 -2.71875,1.828124 -3.51562,3.09375 -0.79688,1.265624 -1.19531,2.601562 -1.19531,4.007812 h 4.35937 c 0.0625,-1.1875 0.40625,-2.132812 1.03125,-2.835938 0.625,-0.6875 1.39063,-1.179687 2.29688,-1.476562 0.90625,-0.28125 1.80468,-0.421875 2.69531,-0.421875 1.1875,0 2.17969,0.15625 2.97656,0.46875 0.8125,0.3125 1.42969,0.742187 1.85156,1.289063 0.42188,0.546874 0.63282,1.171874 0.63282,1.875 z m 6.72656,-6.726563 z m 2.15625,12.398437 v 0.539063 c 0,1.828125 0.26562,3.523437 0.79687,5.085937 0.53126,1.578126 1.29688,2.945313 2.29688,4.101563 1,1.171875 2.21094,2.078125 3.63281,2.71875 1.42188,0.65625 3.01563,0.984375 4.78125,0.984375 1.78125,0 3.38282,-0.328125 4.80469,-0.984375 1.4375,-0.640625 2.65625,-1.546875 3.65625,-2.71875 1.01562,-1.15625 1.78906,-2.523437 2.32031,-4.101563 0.53125,-1.5625 0.79688,-3.257812 0.79688,-5.085937 v -0.539063 c 0,-1.828124 -0.26563,-3.523437 -0.79688,-5.085937 -0.53125,-1.5625 -1.30469,-2.929687 -2.32031,-4.101563 -1,-1.15625 -2.21094,-2.0625 -3.63281,-2.71875 -1.40625,-0.640624 -3,-0.960937 -4.78125,-0.960937 -1.78125,0 -3.38282,0.320313 -4.80469,0.960937 -1.42187,0.65625 -2.64063,1.5625 -3.65625,2.71875 -1,1.171876 -1.76562,2.539063 -2.29688,4.101563 -0.53125,1.5625 -0.79687,3.257813 -0.79687,5.085937 z m 4.33594,0.539063 v -0.539063 c 0,-1.265624 0.14843,-2.460937 0.44531,-3.585937 0.29687,-1.109375 0.74219,-2.09375 1.33594,-2.953125 0.60937,-0.859375 1.36718,-1.539062 2.27344,-2.039062 0.90624,-0.484376 1.96093,-0.726563 3.16406,-0.726563 1.1875,0 2.22656,0.242187 3.11718,0.726563 0.90625,0.5 1.65626,1.179687 2.25,2.039062 0.59376,0.859375 1.03907,1.84375 1.33594,2.953125 0.3125,1.125 0.46875,2.320313 0.46875,3.585937 v 0.539063 c 0,1.25 -0.15625,2.429687 -0.46875,3.539063 -0.29687,1.125 -0.75,2.117187 -1.35937,2.976562 -0.59375,0.875 -1.34375,1.5625 -2.25,2.0625 -0.89063,0.5 -1.9375,0.75 -3.14063,0.75 -1.1875,0 -2.23437,-0.25 -3.14062,-0.75 -0.89063,-0.5 -1.64063,-1.1875 -2.25,-2.0625 -0.59375,-0.859375 -1.03907,-1.851562 -1.33594,-2.976562 -0.29688,-1.109376 -0.44531,-2.289063 -0.44531,-3.539063 z m 32.78906,-12.9375 z m 19.28906,4.921875 V 3.734375 h 4.35938 v -36 h -3.98438 z m -17.0625,7.476562 V -19.375 c 0,1.9375 0.23438,3.695312 0.70313,5.273438 0.48437,1.59375 1.16406,2.960937 2.03906,4.101562 0.89062,1.140625 1.94531,2.015625 3.16406,2.625 1.23438,0.625 2.60938,0.9375 4.125,0.9375 1.59375,0 2.98438,-0.28125 4.17188,-0.84375 1.20312,-0.546875 2.21875,-1.351562 3.04687,-2.414062 0.84375,-1.046876 1.50781,-2.3125 1.99219,-3.796876 0.48437,-1.484374 0.82031,-3.164062 1.00781,-5.039062 v -2.15625 c -0.17187,-1.859375 -0.50781,-3.53125 -1.00781,-5.015625 -0.48438,-1.484375 -1.14844,-2.75 -1.99219,-3.796875 -0.82812,-1.046875 -1.84375,-1.851562 -3.04687,-2.414062 -1.20313,-0.546876 -2.60938,-0.820313 -4.21875,-0.820313 -1.48438,0 -2.84375,0.320313 -4.07813,0.960937 -1.21875,0.640626 -2.27344,1.539063 -3.16406,2.695313 -0.875,1.15625 -1.55469,2.515625 -2.03906,4.078125 -0.46875,1.578125 -0.70313,3.289062 -0.70313,5.132812 z m 4.35938,0.492188 v -0.492188 c 0,-1.265624 0.125,-2.453124 0.375,-3.5625 0.26562,-1.109374 0.67187,-2.085937 1.21875,-2.929687 0.54687,-0.84375 1.24218,-1.507813 2.08594,-1.992187 0.84374,-0.46875 1.85156,-0.703126 3.02343,-0.703126 1.4375,0 2.61719,0.304688 3.53907,0.914063 0.9375,0.609375 1.68749,1.414063 2.25,2.414063 0.56249,1 1,2.085937 1.3125,3.257812 v 5.648438 c -0.1875,0.859374 -0.46094,1.6875 -0.82032,2.484374 -0.34375,0.8125 -0.79687,1.53125 -1.35937,2.15625 -0.54688,0.640626 -1.22657,1.148438 -2.03907,1.523438 -0.79687,0.375 -1.74218,0.5625 -2.83593,0.5625 -1.1875,0 -2.21094,-0.25 -3.07031,-0.75 -0.84376,-0.484375 -1.53907,-1.15625 -2.08594,-2.015625 -0.54688,-0.84375 -0.95313,-1.828125 -1.21875,-2.953125 -0.25,-1.109375 -0.375,-2.296875 -0.375,-3.5625 z M 705,-32.265625 Z m 2.15625,12.398437 v 0.539063 c 0,1.828125 0.26562,3.523437 0.79687,5.085937 0.53126,1.578126 1.29688,2.945313 2.29688,4.101563 1,1.171875 2.21094,2.078125 3.63281,2.71875 1.42188,0.65625 3.01563,0.984375 4.78125,0.984375 1.78125,0 3.38281,-0.328125 4.80469,-0.984375 1.4375,-0.640625 2.65625,-1.546875 3.65625,-2.71875 1.01562,-1.15625 1.78906,-2.523437 2.32031,-4.101563 0.53125,-1.5625 0.79688,-3.257812 0.79688,-5.085937 v -0.539063 c 0,-1.828124 -0.26563,-3.523437 -0.79688,-5.085937 -0.53125,-1.5625 -1.30469,-2.929687 -2.32031,-4.101563 -1,-1.15625 -2.21094,-2.0625 -3.63281,-2.71875 -1.40625,-0.640624 -3,-0.960937 -4.78125,-0.960937 -1.78125,0 -3.38282,0.320313 -4.80469,0.960937 -1.42187,0.65625 -2.64063,1.5625 -3.65625,2.71875 -1,1.171876 -1.76562,2.539063 -2.29688,4.101563 -0.53125,1.5625 -0.79687,3.257813 -0.79687,5.085937 z m 4.33594,0.539063 v -0.539063 c 0,-1.265624 0.14843,-2.460937 0.44531,-3.585937 0.29688,-1.109375 0.74219,-2.09375 1.33594,-2.953125 0.60937,-0.859375 1.36718,-1.539062 2.27343,-2.039062 0.90625,-0.484376 1.96094,-0.726563 3.16407,-0.726563 1.1875,0 2.22656,0.242187 3.11718,0.726563 0.90626,0.5 1.65626,1.179687 2.25,2.039062 0.59376,0.859375 1.03907,1.84375 1.33594,2.953125 0.3125,1.125 0.46875,2.320313 0.46875,3.585937 v 0.539063 c 0,1.25 -0.15625,2.429687 -0.46875,3.539063 -0.29687,1.125 -0.75,2.117187 -1.35937,2.976562 -0.59375,0.875 -1.34375,1.5625 -2.25,2.0625 -0.89063,0.5 -1.9375,0.75 -3.14063,0.75 -1.1875,0 -2.23437,-0.25 -3.14062,-0.75 -0.89063,-0.5 -1.64063,-1.1875 -2.25,-2.0625 -0.59375,-0.859375 -1.03906,-1.851562 -1.33594,-2.976562 -0.29688,-1.109376 -0.44531,-2.289063 -0.44531,-3.539063 z m 32.78906,-12.9375 z m 22.14844,8.625 c 0,0.796875 -0.125,1.5 -0.375,2.109375 -0.23438,0.625 -0.65625,1.1875 -1.26563,1.6875 -0.59375,0.5 -1.42187,0.976562 -2.48437,1.429688 -1.04688,0.453124 -2.375,0.914062 -3.98438,1.382812 -1.6875,0.5 -3.21093,1.054688 -4.57031,1.664062 -1.35938,0.625 -2.52344,1.335938 -3.49219,2.132813 -0.96875,0.796875 -1.71094,1.710937 -2.22656,2.742187 -0.51563,1.03125 -0.77344,2.210938 -0.77344,3.539063 0,1.328125 0.27344,2.554687 0.82031,3.679687 0.54688,1.125 1.32813,2.101563 2.34375,2.929688 1.03125,0.84375 2.25782,1.5 3.67969,1.96875 1.42188,0.46875 3.00782,0.703125 4.75781,0.703125 2.5625,0 4.73438,-0.492187 6.51563,-1.476563 1.79688,-0.96875 3.16406,-2.242187 4.10156,-3.820312 0.9375,-1.5625 1.40625,-3.234375 1.40625,-5.015625 h -4.5 c 0,1.28125 -0.27343,2.414063 -0.82031,3.398437 -0.54688,1 -1.375,1.78125 -2.48438,2.34375 -1.10937,0.578126 -2.51562,0.867188 -4.21875,0.867188 -1.60937,0 -2.9375,-0.242188 -3.98437,-0.726562 -1.04688,-0.484376 -1.82813,-1.140626 -2.34375,-1.96875 -0.5,-0.828126 -0.75,-1.773438 -0.75,-2.835938 0,-0.71875 0.14844,-1.375 0.44531,-1.96875 0.3125,-0.578125 0.78906,-1.117188 1.42969,-1.617188 0.65625,-0.5 1.48437,-0.960937 2.48437,-1.382812 1.01563,-0.421875 2.22657,-0.828125 3.63282,-1.21875 1.9375,-0.546875 3.60937,-1.15625 5.01562,-1.828125 1.40625,-0.671875 2.5625,-1.429687 3.46875,-2.273437 0.92188,-0.828126 1.60156,-1.773438 2.03907,-2.835938 0.45312,-1.046875 0.67968,-2.234375 0.67968,-3.5625 0,-1.390625 -0.28125,-2.648438 -0.84375,-3.773438 -0.5625,-1.125 -1.36719,-2.085937 -2.41406,-2.882812 -1.04687,-0.796875 -2.30469,-1.414062 -3.77344,-1.851562 -1.45312,-0.421876 -3.07812,-0.632813 -4.875,-0.632813 -1.57812,0 -3.13281,0.21875 -4.66406,0.65625 -1.51563,0.4375 -2.89844,1.09375 -4.14844,1.96875 -1.23437,0.875 -2.22656,1.953125 -2.97656,3.234375 -0.73438,1.296875 -1.10156,2.796875 -1.10156,4.5 h 4.5 c 0,-1.171875 0.22656,-2.179688 0.67968,-3.023438 0.45313,-0.828124 1.07032,-1.515624 1.85157,-2.0625 0.79687,-0.546874 1.69531,-0.953124 2.69531,-1.21875 1.01562,-0.25 2.07031,-0.375 3.16406,-0.375 1.57813,0 2.91407,0.21875 4.00781,0.65625 1.09376,0.4375 1.92188,1.0625 2.48438,1.875 0.57812,0.8125 0.86719,1.773438 0.86719,2.882813 z m 6.35156,-8.625 z m 7.64062,20.484375 V -42.015625 H 776.0625 V -6.90625 h 3.98437 z m 17.08594,-7.59375 v -0.492188 c 0,-1.84375 -0.21875,-3.554687 -0.65625,-5.132812 -0.4375,-1.5625 -1.07812,-2.921875 -1.92187,-4.078125 -0.82813,-1.15625 -1.85157,-2.054687 -3.07032,-2.695313 -1.21875,-0.640624 -2.61718,-0.960937 -4.19531,-0.960937 -1.60937,0 -3.03125,0.265625 -4.26562,0.796875 -1.23438,0.53125 -2.28125,1.304688 -3.14063,2.320312 -0.85937,1.015626 -1.54687,2.234376 -2.0625,3.65625 -0.5,1.421876 -0.84375,3.023438 -1.03125,4.804688 v 2.625 c 0.1875,1.875 0.53906,3.554688 1.05469,5.039062 0.51563,1.484376 1.19531,2.75 2.03906,3.796876 0.85938,1.0625 1.89844,1.867187 3.11719,2.414062 1.21875,0.5625 2.625,0.84375 4.21875,0.84375 1.59375,0 3.00781,-0.3125 4.24219,-0.9375 1.23437,-0.609375 2.27344,-1.484375 3.11718,-2.625 0.84376,-1.140625 1.47657,-2.507812 1.89844,-4.101562 0.4375,-1.578126 0.65625,-3.335938 0.65625,-5.273438 z m -4.35937,-0.492188 V -19.375 c 0,1.265625 -0.13282,2.453125 -0.39844,3.5625 -0.26562,1.125 -0.67969,2.109375 -1.24219,2.953125 -0.54687,0.859375 -1.25,1.53125 -2.10937,2.015625 -0.85938,0.5 -1.88282,0.75 -3.07032,0.75 -1.09374,0 -2.04687,-0.1875 -2.85937,-0.5625 -0.79687,-0.375 -1.47656,-0.882812 -2.03906,-1.523438 -0.5625,-0.625 -1.02344,-1.34375 -1.38282,-2.15625 -0.34375,-0.796874 -0.60156,-1.625 -0.77343,-2.484374 v -6.070313 c 0.3125,-1.09375 0.75,-2.125 1.3125,-3.09375 0.5625,-0.953125 1.3125,-1.726563 2.25,-2.320313 0.9375,-0.578124 2.11718,-0.867187 3.53906,-0.867187 1.17187,0 2.17969,0.242187 3.02344,0.726563 0.85937,0.5 1.5625,1.179687 2.10937,2.039062 0.5625,0.859375 0.97657,1.84375 1.24219,2.953125 0.26562,1.125 0.39844,2.320313 0.39844,3.585937 z m 6.58594,-12.398437 z m 2.15624,12.398437 v 0.539063 c 0,1.828125 0.26563,3.523437 0.79688,5.085937 0.53125,1.578126 1.29688,2.945313 2.29688,4.101563 1,1.171875 2.21093,2.078125 3.63281,2.71875 1.42187,0.65625 3.01562,0.984375 4.78125,0.984375 1.78125,0 3.38281,-0.328125 4.80468,-0.984375 1.4375,-0.640625 2.65625,-1.546875 3.65625,-2.71875 1.01563,-1.15625 1.78907,-2.523437 2.32032,-4.101563 0.53125,-1.5625 0.79687,-3.257812 0.79687,-5.085937 v -0.539063 c 0,-1.828124 -0.26562,-3.523437 -0.79687,-5.085937 -0.53125,-1.5625 -1.30469,-2.929687 -2.32032,-4.101563 -1,-1.15625 -2.21093,-2.0625 -3.63281,-2.71875 -1.40625,-0.640624 -3,-0.960937 -4.78125,-0.960937 -1.78125,0 -3.38281,0.320313 -4.80469,0.960937 -1.42187,0.65625 -2.64062,1.5625 -3.65624,2.71875 -1,1.171876 -1.76563,2.539063 -2.29688,4.101563 -0.53125,1.5625 -0.79688,3.257813 -0.79688,5.085937 z m 4.33594,0.539063 v -0.539063 c 0,-1.265624 0.14844,-2.460937 0.44532,-3.585937 0.29687,-1.109375 0.74218,-2.09375 1.33593,-2.953125 0.60938,-0.859375 1.36719,-1.539062 2.27344,-2.039062 0.90625,-0.484376 1.96094,-0.726563 3.16406,-0.726563 1.1875,0 2.22657,0.242187 3.11719,0.726563 0.90625,0.5 1.65625,1.179687 2.25,2.039062 0.59375,0.859375 1.03906,1.84375 1.33594,2.953125 0.3125,1.125 0.46875,2.320313 0.46875,3.585937 v 0.539063 c 0,1.25 -0.15625,2.429687 -0.46875,3.539063 -0.29688,1.125 -0.75,2.117187 -1.35938,2.976562 -0.59375,0.875 -1.34375,1.5625 -2.25,2.0625 -0.89062,0.5 -1.9375,0.75 -3.14062,0.75 -1.1875,0 -2.23438,-0.25 -3.14063,-0.75 -0.89062,-0.5 -1.64062,-1.1875 -2.25,-2.0625 -0.59375,-0.859375 -1.03906,-1.851562 -1.33593,-2.976562 -0.29688,-1.109376 -0.44532,-2.289063 -0.44532,-3.539063 z m 20.88282,-12.9375 z m 13.92187,25.359375 v -3.328125 h -13.71094 v 3.328125 z m -9.07031,6.164062 h 4.33594 v -25.242187 c 0,-0.859375 0.13281,-1.507813 0.39843,-1.945313 0.26563,-0.4375 0.60938,-0.726562 1.03125,-0.867187 0.42188,-0.140625 0.875,-0.210937 1.35938,-0.210937 0.35937,0 0.73437,0.03125 1.125,0.09375 0.40625,0.07812 0.71093,0.140624 0.91406,0.1875 l 0.0234,-3.539063 c -0.34375,-0.109375 -0.79688,-0.210937 -1.35938,-0.304687 -0.54687,-0.109376 -1.21094,-0.164063 -1.99218,-0.164063 -1.0625,0 -2.03907,0.210937 -2.92969,0.632813 -0.89063,0.421874 -1.60157,1.125 -2.13281,2.109374 -0.51563,1 -0.77344,2.34375 -0.77344,4.03125 v 25.21875 z m 10.85156,-31.523437 z m 8.01562,25.359375 v -25.359375 h -4.35937 V -6.90625 Z m -4.6875,6.726562 c 0,0.703126 0.21094,1.296876 0.63282,1.78125 0.4375,0.484376 1.07812,0.726563 1.92187,0.726563 0.82813,0 1.46094,-0.242187 1.89844,-0.726563 0.45312,-0.484374 0.67969,-1.078124 0.67969,-1.78125 0,-0.671874 -0.22657,-1.25 -0.67969,-1.734374 -0.4375,-0.46875 -1.07031,-0.703126 -1.89844,-0.703126 -0.84375,0 -1.48437,0.234376 -1.92187,0.703126 -0.42188,0.484374 -0.63282,1.0625 -0.63282,1.734374 z m 8.34376,-32.085937 z m 9.77343,0 h -4.33594 v 28.03125 c 0,1.828125 0.32813,3.367187 0.98438,4.617187 0.67187,1.265626 1.63281,2.21875 2.88281,2.859376 1.25,0.65625 2.73438,0.984374 4.45313,0.984374 0.5,0 1,-0.03125 1.5,-0.09375 0.51562,-0.0625 1.01562,-0.15625 1.5,-0.28125 L 871.00781,0.3125 c -0.32812,0.078125 -0.70312,0.132812 -1.125,0.164062 -0.40625,0.03125 -0.8125,0.046876 -1.21875,0.046876 -0.92187,0 -1.71875,-0.1875 -2.39062,-0.5625 -0.65625,-0.359376 -1.15625,-0.890626 -1.5,-1.59375 -0.34375,-0.703126 -0.51563,-1.570313 -0.51563,-2.601563 z m 5.39063,25.359375 v -3.328125 h -13.73438 v 3.328125 z m 1.52344,-25.359375 z m 10.42968,2.625 7.05469,22.734375 h 4.64063 L 883.125,-36.179688 c -0.23438,-0.625 -0.54688,-1.296874 -0.9375,-2.015624 -0.375,-0.734376 -0.85938,-1.429688 -1.45312,-2.085938 -0.59376,-0.65625 -1.31251,-1.1875 -2.15626,-1.59375 -0.82812,-0.421875 -1.82031,-0.632812 -2.97656,-0.632812 -0.34375,0 -0.78125,0.04687 -1.3125,0.140624 -0.53125,0.09375 -0.90625,0.171876 -1.125,0.234376 l -0.0234,3.515624 c 0.125,-0.01562 0.32032,-0.03125 0.58594,-0.04687 0.28125,-0.03125 0.47656,-0.04688 0.58594,-0.04688 0.98438,0 1.82031,0.132813 2.50781,0.398438 0.6875,0.25 1.26563,0.679688 1.73438,1.289062 0.48437,0.59375 0.89843,1.414063 1.24219,2.460938 l 1.80468,4.921875 z m -5.17969,22.734375 6.58594,-19.6875 1.125,-4.570312 -3.11719,-1.59375 -9.32812,25.851562 z m 29.39063,-25.359375 z m 7.64062,19.945313 v -19.945313 h -4.33593 V -6.90625 h 4.10156 z m -1.03125,-6.304688 -1.80468,0.07031 c 0.0156,1.734376 0.27343,3.335938 0.77343,4.804688 0.5,1.484375 1.20313,2.773438 2.10938,3.867188 0.90625,1.09375 1.98438,1.9375 3.23438,2.53125 1.26562,0.609374 2.66406,0.914062 4.19531,0.914062 1.25,0 2.375,-0.171875 3.375,-0.515625 1,-0.328125 1.85156,-0.859375 2.55468,-1.59375 0.71875,-0.734375 1.26563,-1.6875 1.64063,-2.859375 0.375,-1.15625 0.5625,-2.570312 0.5625,-4.242188 v -16.617187 h -4.35938 v 16.664063 c 0,1.328124 -0.19531,2.390624 -0.58593,3.1875 -0.39063,0.8125 -0.96094,1.398437 -1.71094,1.757812 -0.75,0.375 -1.67187,0.5625 -2.76563,0.5625 -1.07812,0 -2.0625,-0.226562 -2.95312,-0.679688 -0.875,-0.453124 -1.63281,-1.078124 -2.27344,-1.875 -0.625,-0.796874 -1.11718,-1.710937 -1.47656,-2.742187 -0.34375,-1.015625 -0.51563,-2.09375 -0.51563,-3.234375 z m 19.92188,-13.640625 z M 934.5,-19.867188 v 0.539063 c 0,1.828125 0.26562,3.523437 0.79688,5.085937 0.53124,1.578126 1.29687,2.945313 2.29687,4.101563 1,1.171875 2.21094,2.078125 3.63281,2.71875 1.42188,0.65625 3.01563,0.984375 4.78125,0.984375 1.78125,0 3.38281,-0.328125 4.80469,-0.984375 1.4375,-0.640625 2.65625,-1.546875 3.65625,-2.71875 1.01563,-1.15625 1.78906,-2.523437 2.32031,-4.101563 0.53125,-1.5625 0.79688,-3.257812 0.79688,-5.085937 v -0.539063 c 0,-1.828124 -0.26563,-3.523437 -0.79688,-5.085937 -0.53125,-1.5625 -1.30468,-2.929687 -2.32031,-4.101563 -1,-1.15625 -2.21094,-2.0625 -3.63281,-2.71875 -1.40625,-0.640624 -3,-0.960937 -4.78125,-0.960937 -1.78125,0 -3.38281,0.320313 -4.80469,0.960937 -1.42188,0.65625 -2.64062,1.5625 -3.65625,2.71875 -1,1.171876 -1.76563,2.539063 -2.29687,4.101563 -0.53126,1.5625 -0.79688,3.257813 -0.79688,5.085937 z m 4.33594,0.539063 v -0.539063 c 0,-1.265624 0.14844,-2.460937 0.44531,-3.585937 0.29687,-1.109375 0.74219,-2.09375 1.33594,-2.953125 0.60937,-0.859375 1.36719,-1.539062 2.27343,-2.039062 0.90626,-0.484376 1.96094,-0.726563 3.16407,-0.726563 1.1875,0 2.22656,0.242187 3.11719,0.726563 0.90624,0.5 1.65624,1.179687 2.24999,2.039062 0.59375,0.859375 1.03907,1.84375 1.33594,2.953125 0.3125,1.125 0.46875,2.320313 0.46875,3.585937 v 0.539063 c 0,1.25 -0.15625,2.429687 -0.46875,3.539063 -0.29687,1.125 -0.75,2.117187 -1.35937,2.976562 -0.59375,0.875 -1.34375,1.5625 -2.25,2.0625 -0.89063,0.5 -1.9375,0.75 -3.14063,0.75 -1.1875,0 -2.23437,-0.25 -3.14062,-0.75 -0.89063,-0.5 -1.64063,-1.1875 -2.25,-2.0625 -0.59375,-0.859375 -1.03907,-1.851562 -1.33594,-2.976562 -0.29687,-1.109376 -0.44531,-2.289063 -0.44531,-3.539063 z m 32.78906,-12.9375 z m 16.59375,31.101563 -11.29688,-31.101563 h -4.61718 l 13.00781,34.125 h 2.97656 l -0.0703,-3.023437 z m 9.46875,-31.101563 -11.32031,31.101563 -0.0703,3.023437 h 2.97656 l 13.05465,-34.125 h -4.64059 z m -0.58594,12.632813 v -3.703126 h -19.17187 v 3.703126 z m 5.83594,-12.632813 z m 7.6406,19.945313 v -19.945313 h -4.3359 V -6.90625 h 4.1015 z m -1.0312,-6.304688 -1.8047,0.07031 c 0.016,1.734376 0.2734,3.335938 0.7734,4.804688 0.5,1.484375 1.2032,2.773438 2.1094,3.867188 0.9062,1.09375 1.9844,1.9375 3.2344,2.53125 1.2656,0.609374 2.664,0.914062 4.1953,0.914062 1.25,0 2.375,-0.171875 3.375,-0.515625 1,-0.328125 1.8515,-0.859375 2.5547,-1.59375 0.7187,-0.734375 1.2656,-1.6875 1.6406,-2.859375 0.375,-1.15625 0.5625,-2.570312 0.5625,-4.242188 v -16.617187 h -4.3594 v 16.664063 c 0,1.328124 -0.1953,2.390624 -0.5859,3.1875 -0.3906,0.8125 -0.961,1.398437 -1.711,1.757812 -0.75,0.375 -1.6718,0.5625 -2.7656,0.5625 -1.0781,0 -2.0625,-0.226562 -2.9531,-0.679688 -0.875,-0.453124 -1.6328,-1.078124 -2.2734,-1.875 -0.625,-0.796874 -1.1172,-1.710937 -1.4766,-2.742187 -0.3437,-1.015625 -0.5156,-2.09375 -0.5156,-3.234375 z m 19.9219,-13.640625 z m 2.1562,12.398437 v 0.539063 c 0,1.828125 0.2656,3.523437 0.7969,5.085937 0.5312,1.578126 1.2969,2.945313 2.2969,4.101563 1,1.171875 2.2109,2.078125 3.6328,2.71875 1.4218,0.65625 3.0156,0.984375 4.7812,0.984375 1.7813,0 3.3828,-0.328125 4.8047,-0.984375 1.4375,-0.640625 2.6563,-1.546875 3.6563,-2.71875 1.0156,-1.15625 1.789,-2.523437 2.3203,-4.101563 0.5312,-1.5625 0.7968,-3.257812 0.7968,-5.085937 v -0.539063 c 0,-1.828124 -0.2656,-3.523437 -0.7968,-5.085937 -0.5313,-1.5625 -1.3047,-2.929687 -2.3203,-4.101563 -1,-1.15625 -2.211,-2.0625 -3.6329,-2.71875 -1.4062,-0.640624 -3,-0.960937 -4.7812,-0.960937 -1.7813,0 -3.3828,0.320313 -4.8047,0.960937 -1.4219,0.65625 -2.6406,1.5625 -3.6562,2.71875 -1,1.171876 -1.7657,2.539063 -2.2969,4.101563 -0.5313,1.5625 -0.7969,3.257813 -0.7969,5.085937 z m 4.3359,0.539063 v -0.539063 c 0,-1.265624 0.1485,-2.460937 0.4454,-3.585937 0.2968,-1.109375 0.7421,-2.09375 1.3359,-2.953125 0.6094,-0.859375 1.3672,-1.539062 2.2734,-2.039062 0.9063,-0.484376 1.961,-0.726563 3.1641,-0.726563 1.1875,0 2.2266,0.242187 3.1172,0.726563 0.9062,0.5 1.6562,1.179687 2.25,2.039062 0.5937,0.859375 1.039,1.84375 1.3359,2.953125 0.3125,1.125 0.4688,2.320313 0.4688,3.585937 v 0.539063 c 0,1.25 -0.1563,2.429687 -0.4688,3.539063 -0.2969,1.125 -0.75,2.117187 -1.3594,2.976562 -0.5937,0.875 -1.3437,1.5625 -2.25,2.0625 -0.8906,0.5 -1.9375,0.75 -3.1406,0.75 -1.1875,0 -2.2344,-0.25 -3.1406,-0.75 -0.8906,-0.5 -1.6406,-1.1875 -2.25,-2.0625 -0.5938,-0.859375 -1.0391,-1.851562 -1.3359,-2.976562 -0.2969,-1.109376 -0.4454,-2.289063 -0.4454,-3.539063 z m 32.7891,-12.9375 z m 19.2891,4.921875 V 3.734375 h 4.3593 v -36 h -3.9843 z m -17.0625,7.476562 V -19.375 c 0,1.9375 0.2343,3.695312 0.7031,5.273438 0.4844,1.59375 1.1641,2.960937 2.0391,4.101562 0.8906,1.140625 1.9453,2.015625 3.164,2.625 1.2344,0.625 2.6094,0.9375 4.125,0.9375 1.5938,0 2.9844,-0.28125 4.1719,-0.84375 1.2031,-0.546875 2.2187,-1.351562 3.0469,-2.414062 0.8437,-1.046876 1.5078,-2.3125 1.9922,-3.796876 0.4843,-1.484374 0.8203,-3.164062 1.0078,-5.039062 v -2.15625 c -0.1719,-1.859375 -0.5078,-3.53125 -1.0078,-5.015625 -0.4844,-1.484375 -1.1485,-2.75 -1.9922,-3.796875 -0.8282,-1.046875 -1.8438,-1.851562 -3.0469,-2.414062 -1.2031,-0.546876 -2.6094,-0.820313 -4.2188,-0.820313 -1.4843,0 -2.8437,0.320313 -4.0781,0.960937 -1.2187,0.640626 -2.2734,1.539063 -3.164,2.695313 -0.875,1.15625 -1.5547,2.515625 -2.0391,4.078125 -0.4688,1.578125 -0.7031,3.289062 -0.7031,5.132812 z m 4.3593,0.492188 v -0.492188 c 0,-1.265624 0.125,-2.453124 0.375,-3.5625 0.2657,-1.109374 0.6719,-2.085937 1.2188,-2.929687 0.5469,-0.84375 1.2422,-1.507813 2.0859,-1.992187 0.8438,-0.46875 1.8516,-0.703126 3.0235,-0.703126 1.4375,0 2.6172,0.304688 3.539,0.914063 0.9375,0.609375 1.6875,1.414063 2.25,2.414063 0.5625,1 1,2.085937 1.3125,3.257812 v 5.648438 c -0.1875,0.859374 -0.4609,1.6875 -0.8203,2.484374 -0.3437,0.8125 -0.7969,1.53125 -1.3594,2.15625 -0.5468,0.640626 -1.2265,1.148438 -2.039,1.523438 -0.7969,0.375 -1.7422,0.5625 -2.836,0.5625 -1.1875,0 -2.2109,-0.25 -3.0703,-0.75 -0.8437,-0.484375 -1.539,-1.15625 -2.0859,-2.015625 -0.5469,-0.84375 -0.9531,-1.828125 -1.2188,-2.953125 -0.25,-1.109375 -0.375,-2.296875 -0.375,-3.5625 z m 20.5079,-12.890625 z m 13.8281,-0.46875 c -1.7656,0 -3.3672,0.296875 -4.8047,0.890625 -1.4219,0.609375 -2.6484,1.460938 -3.6797,2.554688 -1.0156,1.09375 -1.7969,2.390624 -2.3437,3.890624 -0.5469,1.5 -0.8204,3.140626 -0.8204,4.921876 v 0.984374 c 0,2.0625 0.3047,3.898438 0.9141,5.507813 0.6094,1.625 1.4375,3 2.4844,4.125 1.0469,1.125 2.2344,1.976563 3.5625,2.554687 1.3281,0.578126 2.7031,0.867188 4.125,0.867188 1.8125,0 3.375,-0.3125 4.6875,-0.9375 1.3281,-0.625 2.414,-1.5 3.2578,-2.625 0.8437,-1.109375 1.4687,-2.421875 1.875,-3.9375 0.4062,-1.5 0.6094,-3.140625 0.6094,-4.921875 v -1.945313 h -18.9375 v 3.539063 h 14.6015 v 0.328125 c -0.062,1.125 -0.2968,2.21875 -0.7031,3.28125 -0.3906,1.0625 -1.0156,1.9375 -1.875,2.625 -0.8594,0.6875 -2.0312,1.03125 -3.5156,1.03125 -0.9844,0 -1.8906,-0.210938 -2.7188,-0.632812 -0.8281,-0.40625 -1.539,-1.015626 -2.1328,-1.828126 -0.5937,-0.8125 -1.0547,-1.804687 -1.3828,-2.976562 -0.3281,-1.171875 -0.4922,-2.523438 -0.4922,-4.054688 v -0.984374 c 0,-1.203126 0.1641,-2.335938 0.4922,-3.398438 0.3438,-1.046875 0.8359,-1.96875 1.4766,-2.765625 0.6562,-0.796875 1.4453,-1.421875 2.3672,-1.875 0.9375,-0.453125 2,-0.679687 3.1875,-0.679687 1.5312,0 2.8281,0.3125 3.8906,0.9375 1.0625,0.625 1.9922,1.460937 2.789,2.507812 l 2.625,-2.085938 c -0.5468,-0.828124 -1.2421,-1.617187 -2.0859,-2.367187 -0.8437,-0.75 -1.8828,-1.359375 -3.1172,-1.828125 -1.2187,-0.46875 -2.664,-0.703125 -4.3359,-0.703125 z m 23.5312,0.46875 z m 25.1953,3.5625 v -3.5625 h -22.3359 v 3.117187 l 11.1797,12.445313 c 1.375,1.53125 2.4375,2.828125 3.1875,3.890625 0.7656,1.078125 1.2969,2.039062 1.5937,2.882812 0.3125,0.859376 0.4688,1.734376 0.4688,2.625 0,1.125 -0.2344,2.140626 -0.7031,3.046876 -0.4532,0.921874 -1.125,1.65625 -2.0157,2.203124 -0.8906,0.546876 -1.9687,0.820313 -3.2343,0.820313 -1.5157,0 -2.7813,-0.296875 -3.7969,-0.890625 -1,-0.578125 -1.75,-1.390625 -2.25,-2.4375 -0.5,-1.046875 -0.75,-2.25 -0.75,-3.609375 h -4.3359 c 0,1.921875 0.4218,3.679687 1.2656,5.273437 0.8437,1.59375 2.0937,2.859376 3.75,3.796876 1.6562,0.953124 3.6953,1.429687 6.1172,1.429687 2.1562,0 4,-0.382813 5.5312,-1.148437 1.5313,-0.75 2.7031,-1.8125 3.5156,-3.1875 0.8282,-1.359376 1.2422,-2.953126 1.2422,-4.78125 0,-1 -0.1718,-2.015626 -0.5156,-3.046876 -0.3281,-1.015624 -0.7891,-2.03125 -1.3828,-3.046874 -0.5781,-1.015626 -1.2578,-2.015626 -2.0391,-3 -0.7656,-0.984376 -1.5859,-1.953126 -2.4609,-2.90625 l -9.1406,-9.914063 z m 1.8047,-3.5625 z m 24.2578,19.78125 V -17.6875 c 0,-2.796875 -0.25,-5.15625 -0.75,-7.078125 -0.5,-1.921875 -1.2187,-3.46875 -2.1562,-4.640625 -0.9375,-1.171875 -2.0703,-2.023438 -3.3984,-2.554688 -1.3125,-0.515624 -2.7969,-0.773437 -4.4532,-0.773437 -1.3125,0 -2.5234,0.164063 -3.6328,0.492187 -1.1094,0.328126 -2.1094,0.851563 -3,1.570313 -0.875,0.734375 -1.625,1.6875 -2.25,2.859375 -0.625,1.171875 -1.1015,2.59375 -1.4297,4.265625 -0.3281,1.671875 -0.4922,3.625 -0.4922,5.859375 v 5.203125 c 0,2.796875 0.25,5.140625 0.75,7.03125 0.5157,1.890625 1.2422,3.40625 2.1797,4.546875 0.9375,1.15625 2.0625,1.984375 3.375,2.484375 1.3282,0.5 2.8125,0.75 4.4532,0.75 1.3281,0 2.5468,-0.164063 3.6562,-0.492187 1.125,-0.3125 2.125,-0.820313 3,-1.523438 0.875,-0.6875 1.6172,-1.609375 2.2266,-2.765625 0.625,-1.140625 1.1015,-2.539063 1.4297,-4.195313 0.3281,-1.65625 0.4921,-3.601562 0.4921,-5.835937 z m -4.3593,-5.90625 v 6.632813 c 0,1.53125 -0.094,2.875 -0.2813,4.03125 -0.1719,1.171874 -0.4297,2.171874 -0.7734,3 -0.3438,0.828124 -0.7813,1.5 -1.3125,2.015624 -0.5156,0.515626 -1.1172,0.890626 -1.8047,1.125 -0.6719,0.25 -1.4297,0.375 -2.2734,0.375 -1.0313,0 -1.9454,-0.195312 -2.7422,-0.585937 -0.7969,-0.375 -1.4688,-0.976563 -2.0157,-1.804687 -0.5312,-0.828126 -0.9375,-1.914063 -1.2187,-3.257813 -0.2813,-1.34375 -0.4219,-2.976563 -0.4219,-4.898437 v -6.632813 c 0,-1.53125 0.086,-2.882813 0.2578,-4.054687 0.1875,-1.171876 0.461,-2.1875 0.8203,-3.046876 0.3594,-0.84375 0.7969,-1.539062 1.3125,-2.085937 0.5157,-0.546875 1.1094,-0.953125 1.7813,-1.21875 0.6875,-0.25 1.4453,-0.375 2.2734,-0.375 1.0625,0 1.9922,0.203125 2.7891,0.609375 0.7969,0.40625 1.4609,1.039062 1.9922,1.898438 0.5469,0.875 0.9531,1.992187 1.2187,3.351562 0.2657,1.375 0.3985,3.015625 0.3985,4.921875 z m 7.1015,-13.875 z m 25.1953,3.5625 v -3.5625 h -22.3359 v 3.117187 l 11.1797,12.445313 c 1.375,1.53125 2.4375,2.828125 3.1875,3.890625 0.7656,1.078125 1.2969,2.039062 1.5937,2.882812 0.3125,0.859376 0.4688,1.734376 0.4688,2.625 0,1.125 -0.2344,2.140626 -0.7031,3.046876 -0.4532,0.921874 -1.125,1.65625 -2.0157,2.203124 -0.8906,0.546876 -1.9687,0.820313 -3.2343,0.820313 -1.5157,0 -2.7813,-0.296875 -3.7969,-0.890625 -1,-0.578125 -1.75,-1.390625 -2.25,-2.4375 -0.5,-1.046875 -0.75,-2.25 -0.75,-3.609375 h -4.3359 c 0,1.921875 0.4218,3.679687 1.2656,5.273437 0.8437,1.59375 2.0937,2.859376 3.75,3.796876 1.6562,0.953124 3.6953,1.429687 6.1172,1.429687 2.1562,0 4,-0.382813 5.5312,-1.148437 1.5313,-0.75 2.7031,-1.8125 3.5156,-3.1875 0.8282,-1.359376 1.2422,-2.953126 1.2422,-4.78125 0,-1 -0.1718,-2.015626 -0.5156,-3.046876 -0.3281,-1.015624 -0.7891,-2.03125 -1.3828,-3.046874 -0.5781,-1.015626 -1.2578,-2.015626 -2.0391,-3 -0.7656,-0.984376 -1.5859,-1.953126 -2.4609,-2.90625 l -9.1406,-9.914063 z m 1.8047,-3.5625 z m 17.086,34.3125 v -34.3125 h -4.336 v 28.898437 l -8.7422,-3.1875 v 3.914063 l 12.3985,4.6875 z"
         style="fill:#ffffff;fill-opacity:1;fill-rule:nonzero;stroke:none"
         id="path74" /></g><g
       id="g82"
       transform="translate(83.225891,858.21429)"><path
         d="M 74.770546,149.53839 C 33.476791,149.53839 0,116.0625 0,74.768745 0,33.473206 33.476791,-1.5e-5 74.770546,-1.5e-5 c 41.298214,0 74.771434,33.473221 74.771434,74.76876 0,41.291065 -33.47322,74.766075 -74.772327,74.766075 l 8.93e-4,0.004 v 0 z M 109.05983,41.699097 c -1.33929,-2.196427 -4.21429,-2.892861 -6.41071,-1.54464 -17.555362,10.723213 -39.655368,13.151787 -65.682155,7.205353 -2.508034,-0.571427 -5.008032,1 -5.57946,3.508934 -0.574107,2.508926 0.991069,5.008926 3.505355,5.580353 28.482144,6.509826 52.913399,3.70536 72.62232,-8.339279 2.19644,-1.348214 2.89286,-4.214287 1.54465,-6.410721 z m 9.15177,20.36161 c -1.6875,-2.745537 -5.27677,-3.611603 -8.01784,-1.924103 -20.098217,12.356247 -50.734825,15.93393 -74.507149,8.717858 -3.083034,-0.931252 -6.339287,0.806244 -7.275001,3.883926 -0.928572,3.083038 0.809824,6.333031 3.8875,7.270531 27.154469,8.239288 60.912499,4.248222 83.99286,-9.934815 2.74106,-1.6875 3.60713,-5.276786 1.91963,-8.01429 z m 0.78572,21.199997 c -24.098211,14.313393 -63.857138,15.629471 -86.865171,8.646431 -3.694645,-1.120529 -7.601792,0.965179 -8.721434,4.659821 -1.119642,3.696434 0.964287,7.600894 4.661608,8.724114 26.411609,8.01786 70.317859,6.46875 98.062507,-10.001786 3.33035,-1.972328 4.41964,-6.26429 2.44642,-9.583031 -1.96428,-3.323219 -6.26786,-4.418762 -9.58036,-2.445549 h -0.004 z"
         style="fill:#1ed760;fill-opacity:1;fill-rule:nonzero;stroke:none"
         id="path84" /></g><g
       id="g86"
       transform="translate(18,703)"><path
         d="M 0,65 H 10 V 0 H 0 Z"
         style="fill:#1ed760;fill-opacity:1;fill-rule:nonzero;stroke:none"
         id="path88" /></g></g></svg>
